<?xml version="1.0" encoding="utf-8"?>
<!-- Generator: Adobe Illustrator 26.0.3, SVG Export Plug-In . SVG Version: 6.00 Build 0)  -->
<svg version="1.1" id="Layer_1" xmlns="http://www.w3.org/2000/svg" xmlns:xlink="http://www.w3.org/1999/xlink" x="0px" y="0px"
	 viewBox="0 0 512 512" style="enable-background:new 0 0 512 512;" xml:space="preserve">
<style type="text/css">
	.st0{fill:#E0234E;}
</style>
<g>
	<path class="st0" d="M303.4,19.1c4.8,23.1-17.4,29.5-1.3,54c-5-33.6,22.9-38.6,28-49.1c-1-18.4-24.2-28.3-39-22.2
		C297.2,5.8,301.6,12,303.4,19.1z"/>
	<path class="st0" d="M440.1,102.2c-0.1-0.3-0.3-0.4-0.3-0.7c-0.1,0.1-0.1,0.1-0.1,0.3c0-0.1,0-0.1-0.1-0.3
		c-1,57.4-63.6,100.2-117.5,81.8c99.1-8.7,115.1-143,21.4-175.8l0,0c0.4,17.6-10.6,26.2-24.2,34.5c-12,9-16.4,26.7-9.7,40.1
		c-60.1-26.3-136-34.6-194.5-0.7C95.6,92.5,84.4,113.6,64.3,124c-15.7,10.8-37.3,7.2-51.6,19C4.2,150.1-0.5,161.7,0,172.6
		c1.8,10.1,11.2,16.7,20,21.1c2.1,13.4,12,24.2,25.1,27.3c-1.3,20.2,0.4,22.5,13.4,1.6c-0.8,9.2-1.3,19.9,0,23.1
		c1.5,3.3,9.4-7,16.3-18.5c93.7-21.8,179.3,43.3,188.3,135.1c-1.7-14.3-19.3-22.3-27.4-20.3c-4,9.8-10.7,22.4-21.6,30.3
		c0.9-8.9,0.5-17.8-1.3-26.5c-3,12.2-8.6,23.6-16.4,33.5c-18.9,1.8-43.8-15.6-31.6-34.9c5.8-13.2-5-18.1-15.6-18.2
		c-47.2,3.4-34,70.7-7,85.6c-8.2,1.6-16.1,3-18.5,5.2c10,7,29.9,13,39.3,15.3v0.1c69.1,15.2,139-34.8,148.6-105.4
		c6.3,26.6,2.8,55-8.1,79.9h-0.1c-9.9,22.3-26.1,41.3-46.5,54.6l0.4,0.8c22.2-2.9,43.8-8.9,64.4-17.7c-21.2,29-49.5,52.2-82.1,67.3
		c70.7-4.1,136.2-46.2,170-108.1c-5.4,30.7-17.6,59.9-35.6,85.4c48.7-31.9,82.2-84.9,91-142.3c4.5,21,5.8,42.6,3.8,64
		C564.3,277.3,476.8,138.7,440.1,102.2z"/>
</g>
</svg>
