<?xml version="1.0" encoding="utf-8"?>
<!-- Generator: Adobe Illustrator 26.0.3, SVG Export Plug-In . SVG Version: 6.00 Build 0)  -->
<svg version="1.1" id="Layer_1" xmlns="http://www.w3.org/2000/svg" xmlns:xlink="http://www.w3.org/1999/xlink" x="0px" y="0px"
	 viewBox="0 0 512 512" style="enable-background:new 0 0 512 512;" xml:space="preserve">
<style type="text/css">
	.st0{fill:#642102;}
	.st1{fill:#FF7B00;}
</style>
<path class="st0" d="M428,188.8c26.8-15.8,60.5-52.5,60.5-85.3c0-49.6-46.4-88-96-88c-80.3,0-89,64.1-89,113.7l0,0
	c0,2.1-1.7,3.8-3.8,3.9c-0.5,0-0.9-0.1-1.4-0.2c-14-5.4-27.5-5.3-41.8-5.3s-27.9-0.1-41.8,5.3c-2,0.8-4.2-0.2-5-2.2
	c-0.2-0.4-0.3-0.9-0.2-1.4l0,0c0-49.6-8.7-113.7-89-113.7c-49.6,0-96,38.4-96,88c0,32.8,33.6,69.5,60.5,85.3
	c1.8,1.1,2.4,3.4,1.3,5.2c-0.2,0.3-0.4,0.5-0.6,0.8c-34.7,35-53.2,82.7-53.2,132.8c0,168,98.7,168,224,168s224,0,224-168
	c0-50-18.5-97.8-53.2-132.8c-1.5-1.5-1.5-3.9,0-5.3C427.5,189.2,427.8,189,428,188.8z M120.5,159.5c-28.8,0-56-24-56-56s24-48,56-48
	s48,19.2,48,48C168.5,127.5,160.5,159.5,120.5,159.5z M344.5,103.5c0-28.8,16-48,48-48s56,16,56,48s-27.2,56-56,56
	C352.5,159.5,344.5,127.5,344.5,103.5z"/>
<g>
	<circle class="st1" cx="323" cy="303" r="47.5"/>
	<circle class="st1" cx="181" cy="303" r="47.5"/>
</g>
</svg>
