<svg xmlns="http://www.w3.org/2000/svg" viewBox="0 0 512 512">
  <defs>
    <style>
      .a {
        fill: #3c78aa;
      }

      .b {
        fill: #fdd835;
      }
    </style>
  </defs>
  <g>
    <path class="a" d="M201.216,0A73.21782,73.21782,0,0,0,128,73.21966v43.01015H237.824c9.984,0,18.176,14.59273,18.176,24.57723H73.216A73.21783,73.21783,0,0,0,0,214.02669v96.79844a73.21782,73.21782,0,0,0,73.216,73.21965h30.208V315.43334a72.96185,72.96185,0,0,1,72.7031-73.21965H310.784a73.00638,73.00638,0,0,0,73.2157-72.79641L384,169.22445V73.21966A73.21783,73.21783,0,0,0,310.784,0ZM182.784,41.21806c10.24,0,18.432,3.07215,18.432,18.1769s-8.192,22.81073-18.432,22.81073c-9.984,0-18.176-7.68038-18.176-22.78513S172.8,41.21806,182.784,41.21806Z"/>
    <path class="b" d="M408.55039,128.0064v68.61143a72.96186,72.96186,0,0,1-72.72886,73.19407H201.216A72.9618,72.9618,0,0,0,128,342.51863v96.2617A73.21782,73.21782,0,0,0,201.216,512H310.784A73.21785,73.21785,0,0,0,384,438.80591V395.79576H274.15039c-9.984,0-18.15039-14.59273-18.15039-24.57721H438.784A73.21783,73.21783,0,0,0,512,297.9989h0V201.226a73.21783,73.21783,0,0,0-73.216-73.21965H408.55039ZM161.792,243.545l-.10239.1024c.3072-.0512.64-.02562.9728-.1024ZM329.216,429.81987c9.984,0,18.176,7.68036,18.176,22.78512a18.17645,18.17645,0,0,1-18.176,18.17689c-10.24,0-18.432-3.07218-18.432-18.17689S318.976,429.81987,329.216,429.81987Z"/>
  </g>
</svg>
