<svg xmlns="http://www.w3.org/2000/svg" viewBox="0 0 379.39879 76.68397">
  <defs>
    <style>
      .a {
        fill: #1F2328;
      }
      
      @media (prefers-color-scheme: dark) {
        .a { fill: #E6EDF3; }
      }

      

      .b {
        fill: #00d26a;
      }

      .c {
        fill: #468cfb;
      }

      .d {
        fill: #f9c23c;
      }

      .e {
        fill: #8d65c5;
      }

      .f {
        fill: #5092ff;
      }

      .g {
        fill: #efd5ff;
      }

      .h {
        fill: #ff6dc6;
      }

      .i {
        fill: #c790f1;
      }

      .j {
        fill: #bca4eb;
      }

      .k {
        fill: #1c1c1c;
      }

      .l {
        fill: #675f99;
      }

      .m {
        fill: #f4f4f4;
      }

      .n {
        fill: #db4a01;
      }
    </style>
  </defs>
  <path class="a" d="M109.67725,61.45448a4.51708,4.51708,0,0,0-2.46045.69922l-.17969.12109v-.09961a.62173.62173,0,0,0-.36035-.541c-.08008-.03907-.1001-.06055-1.32031-.06055h-1.24024a.69938.69938,0,0,0-.46.76172c0,.43945.14014.63867.46.74023l.62012.01953h.62012V73.11659h-1.24024a.69832.69832,0,0,0-.46.75976c0,.44141.14014.64063.46.74024h4.18115c.29981-.11914.43994-.29883.43994-.74024a.72377.72377,0,0,0-.43994-.75976h-1.26025V71.27674c0-1.4414,0-1.82031.02-1.82031.31982,0,.91992.56055,1.20019.66016a3.61656,3.61656,0,0,0,1.14014.19922,3.89357,3.89357,0,0,0,3.18066-1.69922,4.688,4.688,0,0,0,.82032-2.1211,4.75811,4.75811,0,0,0,.02-.64062,4.459,4.459,0,0,0-1.02051-3.041A3.51591,3.51591,0,0,0,109.67725,61.45448Zm-.54,7.3418c-1.24024,0-1.76026-1.02149-2.1001-1.94141v-2.459l.07959-.14063a2.43941,2.43941,0,0,1,2.1206-1.28125,2.67508,2.67508,0,0,1,2.52051,2.92188A2.77852,2.77852,0,0,1,109.13721,68.79628Zm-5.44532-46.01954c-.02-.14062-.02-2.48046-.02-6.542,0-6.24121,0-6.32129.04-6.4414a.70357.70357,0,0,1,.26026-.39942.69049.69049,0,0,1,.52-.20019.84151.84151,0,0,1,.80029.54l.06006.09961V16.2953l.02,6.44141.04.25976a5.41555,5.41555,0,0,0,4.74072,4.48047,7.01061,7.01061,0,0,0,.74023.04,5.48879,5.48879,0,0,0,4.08106-1.7002,5.11571,5.11571,0,0,0,1.3999-2.82031l.04-.25976.04-12.90332a.82836.82836,0,0,1,.82031-.62012.79444.79444,0,0,1,.8003.58008c.04.12011.04.20019.04,6.4414,0,4.06153,0,6.40137-.02,6.542a6.77651,6.77651,0,0,1-1.92041,4.22071,7.42239,7.42239,0,0,1-3.481,1.98047,6.62547,6.62547,0,0,1-1.8003.20019,6.39167,6.39167,0,0,1-1.78027-.20019,7.3903,7.3903,0,0,1-3.501-1.98047A6.77661,6.77661,0,0,1,103.69189,22.77674ZM81.31494,5.90858l.12012.11914v.34082a1.63485,1.63485,0,0,1-.02.39942,1.26287,1.26287,0,0,1-.26025.20019A9.51032,9.51032,0,0,0,77.27393,13.39c-.12012.75976-.1001.46-.12012,5.70117,0,2.92907-.00025,4.27087-.0108,4.70386.01074.61083.0108,1.77575.0108,4.01782,0,2.80078,0,4.66113-.02,4.84179a10.5507,10.5507,0,0,1-2.14014,5.68067,11.5986,11.5986,0,0,1-3.061,2.78125l-.27979.17969.27979.17968a11.18151,11.18151,0,0,1,3.981,4.22071,10.26474,10.26474,0,0,1,1.22022,4.24121c.02.18066.02,2.041.02,4.84082,0,2.24243-.00006,3.40771-.0108,4.01855.01055.4325.0108,1.77124.0108,4.68457.02,4.40039.02,4.86035.04,5.14063a10.49546,10.49546,0,0,0,.48,2.26074,9.22821,9.22821,0,0,0,3.481,4.74121,1.2624,1.2624,0,0,1,.26025.2002,1.6347,1.6347,0,0,1,.02.39941v.34082l-.12012.11914h-.70019l-.22022-.11914a10.88619,10.88619,0,0,1-4.64111-4.76172,9.12517,9.12517,0,0,1-.98-3.58008c-.02-.20019-.02-1.92089-.02-3.88086,0-2.21313.00006-4.71411.01184-5.49182-.01166-.5924-.01184-1.75122-.01184-4.05114,0-2.9004,0-4.68067-.02-4.9209a10.36984,10.36984,0,0,0-4.001-8.002.86734.86734,0,0,1-.23974-.21972,3.25316,3.25316,0,0,1,0-.72071.86734.86734,0,0,1,.23974-.21972,10.49316,10.49316,0,0,0,4.001-8.002c.02-.24023.02-2.0205.02-4.92089,0-2.83863,0-4.04224.01031-4.43946-.01031-.628-.01031-1.81372-.01031-4.0625,0-2.90136,0-4.74121.02-4.92187a10.023,10.023,0,0,1,3.2207-6.6211,11.70685,11.70685,0,0,1,2.36035-1.70019l.26026-.13965ZM234.60742,24.19764a3.71073,3.71073,0,0,0,2.2207.67969,5.138,5.138,0,0,0,.6001-.03906,4.25145,4.25145,0,0,0,3.10059-2.32031,3.92,3.92,0,0,0,.5-2.082,5.91414,5.91414,0,0,0-.04-.67968,4.50894,4.50894,0,0,0-2.40039-3.38086,3.958,3.958,0,0,0-1.78027-.41992,4.04812,4.04812,0,0,0-2.90088,1.25976,4.69965,4.69965,0,0,0-1.24024,2.541,5.80545,5.80545,0,0,0,0,1.36132A4.50591,4.50591,0,0,0,234.60742,24.19764Zm2.20069-6.7207a2.63941,2.63941,0,0,1,2.54052,2.7793,3.636,3.636,0,0,1-.58008,1.98047,2.451,2.451,0,0,1-1.94043,1.12109c-1.56054,0-2.5205-1.58008-2.5205-3.10156A2.67019,2.67019,0,0,1,236.80811,17.47694Zm19.6914-3.90234a1.09124,1.09124,0,0,1,1.16016-1.0586,1.13577,1.13577,0,0,1,1.14013,1.03906,1.15488,1.15488,0,0,1-2.30029.01954ZM145.94336,23.99842c0,.5-.11963.58008-.43994.74024H139.082c-.33984-.14063-.46-.24024-.46-.74024,0-.4414.08008-.58007.35986-.70117.08008-.03906.12012-.06054,1.28028-.06054h1.18066V17.65663h-1.10058c-1.1001,0-1.12012-.01953-1.2002-.06055-.27979-.11914-.35986-.30078-.35986-.74023a.70731.70731,0,0,1,.46-.72071h2.20068v-.59961a2.93921,2.93921,0,0,1,.11963-1.14062,3.50845,3.50845,0,0,1,3.4209-1.98047,1.70582,1.70582,0,0,1,1.34033.541,1.2481,1.2481,0,0,1,.33984.83984,1.00565,1.00565,0,0,1-1.98046.2207v-.08008h-.19971a1.46991,1.46991,0,0,0-1.34033.93946,4.25757,4.25757,0,0,0-.02.67968v.58008h1.34033c1.32031,0,1.34033.02149,1.42041.06055.25976.09961.35986.32031.35986.70117,0,.37891-.1001.59961-.35986.69922-.08008.041-.1001.06055-1.42041.06055h-1.34033v5.58008h1.18017c1.16016,0,1.2002.02148,1.28028.06054C145.86377,23.41835,145.94336,23.557,145.94336,23.99842ZM123.81787,62.33534c0,.3789-.09961.59961-.35986.69922-.08008.041-.12012.06054-.6001.06054-.52,0-.52,0-.54.03907-.12012.40039-2.84082,8.80273-2.90088,8.94336a4.18226,4.18226,0,0,1-2.24023,2.51953,2.53193,2.53193,0,0,1-.86035.16015,1.698,1.698,0,0,1-1.66016-1.78125,1.02129,1.02129,0,0,1,2.04053-.08007v.06054h-.36035l-.04.09961c-.08008.18164-.06006.18164.12011.18164A1.95931,1.95931,0,0,0,117.957,71.9369c.11963-.25976.58008-1.70117.58008-1.75976-.02-.06055-1.96045-5.14258-2.68066-7.082h-.54l-.52051-.01953c-.31983-.10156-.46-.30078-.46-.74023a.67121.67121,0,0,1,.46-.74024c.02-.02148.80029-.02148,1.70068-.02148h1.66016c.30029.18164.44043.2207.44043.76172,0,.29883-.02.33984-.06006.41992a.63782.63782,0,0,1-.28027.2793c-.1001.041-.12012.06054-.5.06054-.34034,0-.38038,0-.36036.03907,0,.01953,1.70069,4.42187,1.84082,5.28125V68.515l.05958-.21875c.10009-.541.54052-2.041,1.32031-4.40235.12011-.41992.24023-.77929.24023-.77929a1.68742,1.68742,0,0,0-.41992-.01954c-.42041,0-.44043-.01953-.54053-.06054-.23974-.16016-.31982-.30078-.31982-.69922a.68749.68749,0,0,1,.43994-.76172h3.36084C123.63818,61.77479,123.81787,61.85487,123.81787,62.33534Zm9.70606,4.90039a3.21478,3.21478,0,0,1-3.32081,3.08008,2.58119,2.58119,0,0,1-1.90039-.74024,3.04561,3.04561,0,0,1-.82031-1.93945c-.02-.12109-.02-1.041-.02-2.38086V63.0951h-.98c-.94043,0-.98-.01953-1.06006-.06054-.28027-.11914-.36035-.30078-.36035-.74024a.7079.7079,0,0,1,.46-.7207h1.94043v-1l.02-1.01953c.18018-.33985.30029-.43945.86035-.43945.32032,0,.36035.01953.43994.05859a.6709.6709,0,0,1,.32032.33984c.04.10157.04.14063.04,1.08008v.98047h3.5205c.26026.20117.44043.28125.44043.76172a.69719.69719,0,0,1-.44043.74023l-1.76025.01953h-1.76025v2.11914c0,1.28125,0,2.18165.02,2.28125a1.27361,1.27361,0,0,0,1.30029,1.30079c.87988,0,1.28027-.70118,1.40039-1.58008a.61329.61329,0,0,1,.19971-.5c.16015-.16016.22021-.16016.64013-.16016C133.34375,66.556,133.52393,66.65565,133.52393,67.23573Zm11.6582,2.20117c0,.43945-.14014.61914-.44043.74024h-3.80078c-.31983-.1211-.43994-.24024-.43994-.74024,0-.30078,0-.32031.04-.42187a.81874.81874,0,0,1,.30029-.2793c.07959-.03906.11963-.06055.52-.06055h.43994V66.435c0-1.33985,0-2.32031-.02-2.41992-.08008-.75977-.41992-1.041-1.24023-1.041a2.35015,2.35015,0,0,0-1.84034.90039,3.64642,3.64642,0,0,0-.40039.83984l-.03955.20118-.02,1.88086v1.8789H139.501a.72489.72489,0,0,1,.43994.76172c0,.43945-.14014.61914-.43994.74024h-4.18116c-.31982-.10157-.46-.30079-.46-.74024a.69939.69939,0,0,1,.46-.76172h1.24024V59.49354h-.62012l-.62012-.01953c-.31982-.09961-.46-.30078-.46-.74023a.67259.67259,0,0,1,.46-.74024c.02-.01953.6001-.01953,1.26026-.01953,1.20019,0,1.22021.01953,1.30029.05859a.66742.66742,0,0,1,.32031.3418,10.37211,10.37211,0,0,1,.04,2.03906,8.35052,8.35052,0,0,0,.04,1.90039c.54,0,1.28028-.69921,1.88037-.79882a3.90534,3.90534,0,0,1,.73975-.041,2.2702,2.2702,0,0,1,2.46094,1.78125c.11963.43945.09961.35938.11963,2.98047v2.43945h1.26025A.72459.72459,0,0,1,145.18213,69.4369Zm56.76416-55.8623a1.09124,1.09124,0,0,1,1.16016-1.0586,1.13578,1.13578,0,0,1,1.14013,1.03906,1.15488,1.15488,0,0,1-2.30029.01954Zm-75.82422,6.37109c0-.33984.04-.37988.33984-.37988a2.6225,2.6225,0,0,0,2.4209-1.52051c.11963-.32031.1001-.12012.11963-3.12109a20.98,20.98,0,0,1,.06006-2.87989,1.89256,1.89256,0,0,1,.64014-1.06054,3.76627,3.76627,0,0,1,1.60058-.83985,9.00846,9.00846,0,0,1,1.06006-.18066c.12012,0,.40039-.01953.62012-.01953h.40039c.09961.09961.11963.05957.11963.35937,0,.26074,0,.26074-.05957.32031-.04.06055-.06006.06055-.32031.06055a3.19431,3.19431,0,0,0-1.86036.63965,1.51928,1.51928,0,0,0-.52.68066c-.10009.25977-.10009.21973-.10009,2.96,0,1.72071,0,2.60059-.02,2.72071a2.79112,2.79112,0,0,1-2.12061,2.16015l-.27978.10059.27978.09961a2.76578,2.76578,0,0,1,2.12061,2.16113c.02.12012.02,1,.02,2.72071,0,2.74023,0,2.70019.10009,2.96a2.62,2.62,0,0,0,2.38038,1.32031c.26025,0,.28027,0,.32031.06055.05957.05957.05957.05957.05957.2998,0,.32031,0,.25977-.11963.37988h-.36035c-1.88037,0-3.58057-.58008-3.96094-2.10058a21.23533,21.23533,0,0,1-.06006-2.90039c-.01953-2.98047,0-2.78028-.11963-3.10059a2.6225,2.6225,0,0,0-2.4209-1.52051C126.16211,20.32557,126.12207,20.28553,126.12207,19.94569Zm84.24951,7.3125a1.017,1.017,0,0,1-.2998-.48047.62541.62541,0,0,1,.23974-.53906,1.28516,1.28516,0,0,1,.28028-.1211,2.18827,2.18827,0,0,0,1.06006-.69921,2.922,2.922,0,0,0,.37988-.67969l-.13965.01953a1.32444,1.32444,0,0,1-1.44043-1.40039,1.29781,1.29781,0,0,1,1.34033-1.40039,1.91544,1.91544,0,0,1,1.86035,2.08008,3.53371,3.53371,0,0,1-2.46045,3.4414,1.00958,1.00958,0,0,1-.30029.0586A.79251.79251,0,0,1,210.37158,27.25819Zm14.09961-4.02148V17.65663h-.98l-.98-.01953c-.32031-.10157-.46045-.30079-.46045-.74024a.71371.71371,0,0,1,.46045-.76172h3.20068c.31983.24024.44.24024.44.88086v.35938a4.45979,4.45979,0,0,1,3.30078-1.35938,1.893,1.893,0,0,1,1.74023.85938,1.23711,1.23711,0,0,1,.12012.52148.99075.99075,0,0,1-.98047,1.01953.97051.97051,0,0,1-.98-.82031l-.02-.06055a3.58825,3.58825,0,0,0-1.28027.32032,3.417,3.417,0,0,0-1.88037,2.7207c-.02.12109-.02.70117-.02,1.41992v1.24024h1.28027c1.26025,0,1.30029.02148,1.38037.06054.27979.1211.35986.2793.35986.70117,0,.459-.12011.61914-.41992.74024h-6.24121c-.32031-.10156-.46045-.30078-.46045-.74024a.7137.7137,0,0,1,.46045-.76171ZM63.28955,44.20546a.43313.43313,0,0,1-.2998.40039H50.24707a.41609.41609,0,0,1-.28027-.40039.37655.37655,0,0,1,.32031-.4004H62.96973C63.1499,43.88514,63.28955,43.98573,63.28955,44.20546Zm0-7.52149a3.53271,3.53271,0,0,1-2.38037,3.48047,2.07919,2.07919,0,0,1-.78027.13965H59.9292a2.96267,2.96267,0,0,1-1.30029-.25977A8.59681,8.59681,0,0,1,56.48828,38.684a8.86438,8.86438,0,0,0-1.96045-1.25976,2.94026,2.94026,0,0,0-1.22021-.24024h-.08008a2.708,2.708,0,0,0-1.94043.79981,2.45114,2.45114,0,0,0-.78027,1.74023c-.02.32031-.05957.60059-.27979.60059-.20019,0-.28027-.41993-.28027-.66016a3.47,3.47,0,0,1,3.041-3.60059h.19971a3.49087,3.49087,0,0,1,2.08057.58008,11.18776,11.18776,0,0,1,1.48047,1.04A8.8534,8.8534,0,0,0,58.709,38.94374a2.939,2.939,0,0,0,1.22022.24023h.08008a2.71279,2.71279,0,0,0,2.72021-2.52051c0-.2998.1001-.62011.28028-.62011C63.23,36.04335,63.28955,36.4037,63.28955,36.684ZM242.854,58.99354a1.13509,1.13509,0,0,1-1.12011,1.06055,1.12157,1.12157,0,0,1-1.18018-1.041,1.09123,1.09123,0,0,1,1.16016-1.05859A1.12132,1.12132,0,0,1,242.854,58.99354Zm-90.895,2.82031a3.95812,3.95812,0,0,0-1.78027-.41992,4.04817,4.04817,0,0,0-2.90088,1.25977,4.69961,4.69961,0,0,0-1.24023,2.541,5.80553,5.80553,0,0,0,0,1.36133,4.5059,4.5059,0,0,0,1.94043,3.08008,3.71069,3.71069,0,0,0,2.2207.67969,5.13579,5.13579,0,0,0,.6001-.03907,4.25136,4.25136,0,0,0,3.10058-2.32031,3.91531,3.91531,0,0,0,.5-2.082,5.91709,5.91709,0,0,0-.04-.67969A4.50895,4.50895,0,0,0,151.959,61.81385Zm.18018,5.86133a2.451,2.451,0,0,1-1.94043,1.1211c-1.56055,0-2.52051-1.58008-2.52051-3.10157a2.67019,2.67019,0,0,1,2.50049-2.77929,2.6394,2.6394,0,0,1,2.54053,2.77929A3.63609,3.63609,0,0,1,152.13916,67.67518ZM242.814,61.974a45.57036,45.57036,0,0,1,.04,4.70117c0,5.002,0,4.86133-.10009,5.28125a3.833,3.833,0,0,1-1.43995,2.1211,3.58589,3.58589,0,0,1-2.38085.67968c-1.26026-.041-2.04-.25976-2.48047-1.01953a1.48972,1.48972,0,0,1-.16016-.58008,1.04267,1.04267,0,1,1,2.08057-.08007v.11914l.16015.01953h.66016a2.12259,2.12259,0,0,0,.66016-.03906,1.73765,1.73765,0,0,0,.82031-.56055,2.81558,2.81558,0,0,0,.37988-.7793c.12012-.40039.12012-.24023.12012-4.66211V63.0951h-1.48047l-1.46045-.01953c-.31982-.12109-.43994-.26172-.43994-.74023,0-.48047.12012-.64063.43994-.74024.02,0,.98047-.02148,2.12061-.02148h2.06054C242.57422,61.69471,242.73389,61.77479,242.814,61.974Zm11.06885,5.14063a1.733,1.733,0,0,1,.04.502v.1582a2.10314,2.10314,0,0,1-.1001.60156c-.40039,1.24024-1.72021,1.93946-3.64062,1.93946a4.53966,4.53966,0,0,1-2.36084-.53907.92772.92772,0,0,0-.18018-.10156s-.05957.10156-.11963.22071a.654.654,0,0,1-.68017.41992.59889.59889,0,0,1-.6001-.37891,5.04142,5.04142,0,0,1-.04-1.32031c0-1.44141,0-1.38086.17969-1.56055.16016-.16015.22021-.17969.68018-.17969.36035,0,.44042.01954.58007.11914.1001.06055.16016.16016.26026.4004a1.96052,1.96052,0,0,0,2.06054,1.40039c1.14014,0,2.48047-.24024,2.48047-1.17969,0-.32031-.22021-.582-.66015-.80078a5.09677,5.09677,0,0,0-1.90039-.46094,9.53942,9.53942,0,0,1-1.82032-.40039c-1.16015-.39844-1.86035-1.11914-1.86035-2.09961a2.10635,2.10635,0,0,1,.62012-1.48047,3.96617,3.96617,0,0,1,2.52051-.96094c.12011,0,.46-.01953.78027-.01953a4.617,4.617,0,0,1,1.72022.28125.81415.81415,0,0,1,.18017.0586c.02,0,.08008-.0586.15967-.13868a.59331.59331,0,0,1,.52051-.20117.60078.60078,0,0,1,.60009.38086c.04.09961.04.13867.04,1.09961,0,.93945,0,.98047-.04,1.08008-.12011.32031-.28027.38086-.80029.38086-.62012,0-.80029-.1211-.84033-.6211a.56729.56729,0,0,0-.3999-.58007,2.94082,2.94082,0,0,0-1.36035-.21875,3.83912,3.83912,0,0,0-1.68018.29882.76911.76911,0,0,0-.52051.64063.52423.52423,0,0,0,.26026.43945c.84033.58008,2.26025.44141,3.94091.96094A2.93369,2.93369,0,0,1,253.88281,67.11464Zm-18.60205.12109a3.21477,3.21477,0,0,1-3.3208,3.08008,2.58117,2.58117,0,0,1-1.90039-.74024,3.04561,3.04561,0,0,1-.82031-1.93945c-.02-.12109-.02-1.041-.02-2.38086V63.0951h-.98c-.94043,0-.98-.01953-1.06006-.06054-.28027-.11914-.36035-.30078-.36035-.74024a.70788.70788,0,0,1,.46-.7207h1.94043v-1l.02-1.01953c.18017-.33985.30029-.43945.86035-.43945.32031,0,.36035.01953.43994.05859a.67088.67088,0,0,1,.32031.33984c.04.10157.04.14063.04,1.08008v.98047h3.52051c.26025.20117.44043.28125.44043.76172a.6972.6972,0,0,1-.44043.74023l-1.76025.01953H230.8999v2.11914c0,1.28125,0,2.18165.02,2.28125a1.27362,1.27362,0,0,0,1.30029,1.30079c.87989,0,1.28028-.70118,1.4004-1.58008a.61329.61329,0,0,1,.1997-.5c.16016-.16016.22022-.16016.64014-.16016C235.10059,66.556,235.28076,66.65565,235.28076,67.23573Zm70.481-44.81934a1.78291,1.78291,0,0,1-.19971.6211,3.472,3.472,0,0,1-3.30078,1.83984,4.45252,4.45252,0,0,1-4.501-4.44141,4.45674,4.45674,0,0,1,3.9209-4.43945,1.00521,1.00521,0,0,1,.21973-.02148,1.79387,1.79387,0,0,1,.40039-.01953c1.34033,0,2.22021.08007,2.80029.62109a1.31212,1.31212,0,0,1,.42041,1,1.04046,1.04046,0,1,1-2.08056.03906V17.516l-.2002-.01953c-.09961,0-.43994-.01953-.73975-.01953a4.32182,4.32182,0,0,0-.74023.03906,2.86628,2.86628,0,0,0-2.30078,2.94141,3.08544,3.08544,0,0,0,3.24072,2.90039,1.40064,1.40064,0,0,0,1.38037-1.041c.16016-.40039.26026-.48047.84034-.48047.31982,0,.37988,0,.46.041A.5855.5855,0,0,1,305.76172,22.41639Zm-44.061,1.582c0,.5-.12011.58008-.44043.74024h-6.92138c-.31983-.10156-.43994-.26172-.43994-.74024,0-.502.14013-.60156.43994-.76171h2.78076V17.65663h-1.32031l-1.3003-.01953c-.32031-.10157-.43994-.30079-.43994-.74024,0-.4414.11963-.64062.43994-.74023.02-.02149.89991-.02149,1.96045-.02149h1.90039c.16016.1211.31983.20117.39991.40039a25.34562,25.34562,0,0,1,.04,3.40039v3.30079H260.02c1.20019,0,1.24023.02148,1.32031.06054C261.62061,23.41835,261.70068,23.57655,261.70068,23.99842Zm34.90723-7.10156c0,.43945-.13965.61914-.43994.74024l-.52.01953h-.52l-1.04053,3.30078c-.58008,1.80078-1.08008,3.33984-1.12011,3.40039a.96125.96125,0,0,1-.58008.459c-.06006,0-.3003.02149-.54.02149-.24024,0-.48-.02149-.54-.02149a.95984.95984,0,0,1-.58008-.459c-.04-.06055-.54053-1.59961-1.1206-3.40039l-1.04-3.30078h-.52l-.5-.01953c-.32032-.10157-.46045-.28125-.46045-.72071,0-.40039.12011-.64062.40039-.74023a8.677,8.677,0,0,1,1.76025-.041h1.66016a.72617.72617,0,0,1,.44043.76172.66561.66561,0,0,1-.34033.69922c-.1001.041-.12012.06055-.54.06055h-.41992l1.80029,5.56054,1.80029-5.56054h-.41992c-.42041,0-.44043-.01953-.52051-.06055-.25976-.16016-.33984-.25977-.33984-.69922,0-.52148.12011-.58008.43994-.76172H296.168A.72429.72429,0,0,1,296.60791,16.89686ZM225.415,67.11464a1.733,1.733,0,0,1,.04.502v.1582a2.10314,2.10314,0,0,1-.1001.60156c-.40039,1.24024-1.72021,1.93946-3.64062,1.93946a4.53964,4.53964,0,0,1-2.36084-.53907.92772.92772,0,0,0-.18018-.10156s-.05957.10156-.11963.22071a.654.654,0,0,1-.68017.41992.59888.59888,0,0,1-.6001-.37891,5.04142,5.04142,0,0,1-.04-1.32031c0-1.44141,0-1.38086.17969-1.56055.16015-.16015.22021-.17969.68017-.17969.36035,0,.44043.01954.58008.11914.1001.06055.16016.16016.26025.4004a1.96053,1.96053,0,0,0,2.06055,1.40039c1.14014,0,2.48047-.24024,2.48047-1.17969,0-.32031-.22022-.582-.66016-.80078a5.09664,5.09664,0,0,0-1.90039-.46094,9.539,9.539,0,0,1-1.82031-.40039c-1.16016-.39844-1.86035-1.11914-1.86035-2.09961a2.10631,2.10631,0,0,1,.62012-1.48047,3.96616,3.96616,0,0,1,2.5205-.96094c.12012,0,.46-.01953.78028-.01953a4.617,4.617,0,0,1,1.72021.28125.81413.81413,0,0,1,.18018.0586c.02,0,.08008-.0586.15967-.13868a.59329.59329,0,0,1,.5205-.20117.60079.60079,0,0,1,.6001.38086c.04.09961.04.13867.04,1.09961,0,.93945,0,.98047-.04,1.08008-.12012.32031-.28027.38086-.80029.38086-.62012,0-.80029-.1211-.84033-.6211a.56728.56728,0,0,0-.39991-.58007,2.94076,2.94076,0,0,0-1.36035-.21875,3.8391,3.8391,0,0,0-1.68017.29882.7691.7691,0,0,0-.52051.64063.52424.52424,0,0,0,.26025.43945c.84033.58008,2.26026.44141,3.94092.96094A2.93371,2.93371,0,0,1,225.415,67.11464Zm61.43164-43.11622c0,.41993-.12012.61914-.41992.74024h-2.38037c-.32032-.1211-.44043-.24024-.44043-.74024,0-.52148.18017-.7207.56006-.76171h.14013V20.93592c0-2.67968,0-2.75976-.16015-3.09961a.5222.5222,0,0,0-.52-.30078c-.93994,0-1.42041,1-1.52,1.94141-.02.11914-.02.959-.02,1.98047v1.7793h.33984c.62012.041.78027.18164.78027.76171,0,.41993-.12011.61914-.41992.74024h-2.38086c-.31982-.1211-.43994-.24024-.43994-.74024,0-.52148.18018-.7207.56006-.76171h.14014V20.93592c0-2.67968,0-2.75976-.16016-3.09961a.52263.52263,0,0,0-.52-.30078c-.94043,0-1.42041,1-1.52051,1.94141-.02.11914-.02.959-.02,1.98047v1.7793h.34034c.62011.041.78027.18164.78027.76171,0,.41993-.12012.61914-.42041.74024h-2.80029c-.32032-.10156-.46045-.32031-.46045-.74024a.73714.73714,0,0,1,.34033-.70117,1.27165,1.27165,0,0,1,.46-.06054h.34033V17.65663h-.34033a1.18051,1.18051,0,0,1-.46-.06055.73585.73585,0,0,1-.34033-.69922.69916.69916,0,0,1,.46045-.76172h.81982c.82031,0,.84033.02149.92041.06055a.70492.70492,0,0,1,.35986.46094,3.02017,3.02017,0,0,1,1.68067-.6211,1.62,1.62,0,0,1,1.62012.91993l.12011-.09961a2.73435,2.73435,0,0,1,2.04053-.82032,1.3975,1.3975,0,0,1,1.18018.5,2.41511,2.41511,0,0,1,.60009,1.46094c.02.11914.02.83984.04,2.70117v2.53907h.33985C286.687,23.27772,286.84668,23.41835,286.84668,23.99842Zm-18.64063.03907a3.53371,3.53371,0,0,1-2.46044,3.4414,1.0097,1.0097,0,0,1-.3003.0586.79251.79251,0,0,1-.52-.2793,1.017,1.017,0,0,1-.2998-.48047.62541.62541,0,0,1,.23974-.53906,1.28516,1.28516,0,0,1,.28028-.1211,2.18827,2.18827,0,0,0,1.06006-.69921,2.922,2.922,0,0,0,.37988-.67969l-.13965.01953a1.32444,1.32444,0,0,1-1.44043-1.40039,1.29781,1.29781,0,0,1,1.34033-1.40039A1.91544,1.91544,0,0,1,268.20605,24.03749Zm-19.37793,0,.18018-.14063v.18164a.62308.62308,0,0,0,.35986.61914c.08008.041.1001.041,1.34034.041h1.24023c.30029-.1211.44043-.30078.44043-.74024a.72457.72457,0,0,0-.44043-.76171h-1.26025V13.03553a.7935.7935,0,0,0-.35987-.4414c-.08007-.03907-.10009-.0586-1.30029-.0586-.66016,0-1.24023,0-1.26025.01953a.67211.67211,0,0,0-.46.74024c0,.43945.13964.64062.46.74023l.62011.01953h.62012v2.72071l-.18018-.11914a4.05114,4.05114,0,0,0-6.22119,3.77929,4.36789,4.36789,0,0,0,2.40039,4.1211,3.28184,3.28184,0,0,0,1.44043.32031A3.96213,3.96213,0,0,0,248.82812,24.03749Zm-4.541-3.58008a2.82791,2.82791,0,0,1,2.26074-2.90039,1.50707,1.50707,0,0,1,.31983-.02149,2.63571,2.63571,0,0,1,.58007.06055,2.32153,2.32153,0,0,1,1.56055,1.36133V21.3578c-.08008.17969-.14014.35937-.24023.55859A2.3481,2.3481,0,0,1,246.688,23.3578,2.71322,2.71322,0,0,1,244.28711,20.45741Zm-29.2544,45.93848a.68615.68615,0,0,0,.44043-.75977,2.689,2.689,0,0,0-.02-.38086c-.18017-2.25977-1.44042-3.80078-3.78124-3.86133-.21973,0-.46.01953-.52.01953a4.43125,4.43125,0,0,0-1.56006.46094,4.49055,4.49055,0,0,0-2.44092,3.98047,3.90422,3.90422,0,0,0,.28027,1.5,4.74968,4.74968,0,0,0,4.46094,2.96094,3.67782,3.67782,0,0,0,3.36084-1.82032,1.33869,1.33869,0,0,0,.22021-.61914.6096.6096,0,0,0-.36035-.541c-.08008-.03906-.12011-.06055-.48-.06055-.36035,0-.40039.02149-.48.06055a.831.831,0,0,0-.32031.32031,1.50892,1.50892,0,0,1-1.58008,1.12109,3.346,3.346,0,0,1-3.30078-2.1621l-.06006-.19922h3.06055Zm-5.32128-2.68165a2.389,2.389,0,0,1,1.76074-.77929,5.38675,5.38675,0,0,1,.6001.01953,2.164,2.164,0,0,1,1.66015,1.96094h-4.76074A2.9623,2.9623,0,0,1,209.71143,63.71424ZM188.0752,55.79335c.04.12011.04.20019.04,6.4414,0,4.06153,0,6.40137-.02,6.542a6.77651,6.77651,0,0,1-1.92041,4.22071,7.42239,7.42239,0,0,1-3.481,1.98047,6.62547,6.62547,0,0,1-1.8003.20019,6.39167,6.39167,0,0,1-1.78027-.20019,7.3903,7.3903,0,0,1-3.501-1.98047,6.77661,6.77661,0,0,1-1.92041-4.22071c-.02-.14062-.02-2.48046-.02-6.542,0-6.24121,0-6.32129.04-6.4414a.70357.70357,0,0,1,.26026-.39942.69049.69049,0,0,1,.52-.20019.84151.84151,0,0,1,.80029.54l.06006.09961V62.2953l.02,6.44141.04.25976a5.41555,5.41555,0,0,0,4.74072,4.48047,7.01061,7.01061,0,0,0,.74023.04,5.48879,5.48879,0,0,0,4.08106-1.7002,5.11571,5.11571,0,0,0,1.3999-2.82031l.04-.25976.04-12.90332a.82836.82836,0,0,1,.82031-.62012A.79444.79444,0,0,1,188.0752,55.79335Zm-14.58643-30.916a2.582,2.582,0,0,1-1.90039-.74023,3.04559,3.04559,0,0,1-.82031-1.93946c-.02-.12109-.02-1.041-.02-2.38086V17.65663h-.98c-.94043,0-.98-.01953-1.06006-.06055-.28028-.11914-.36035-.30078-.36035-.74023a.70764.70764,0,0,1,.46045-.72071h1.93994v-1l.02-1.01953c.18017-.33984.30029-.43945.86035-.43945.32031,0,.36035.01953.43994.05859a.67086.67086,0,0,1,.32031.33985c.04.10156.04.14062.04,1.08007v.98047h3.52051c.26025.20117.44043.28125.44043.76172a.69722.69722,0,0,1-.44043.74024l-1.76026.01953h-1.76025v2.11914c0,1.28125,0,2.18164.02,2.28125A1.27362,1.27362,0,0,0,173.749,23.3578c.87989,0,1.28028-.70117,1.40039-1.58008a.61481.61481,0,0,1,.19971-.5c.16016-.16016.22022-.16016.64014-.16016.64013,0,.82031.09961.82031.67969A3.21477,3.21477,0,0,1,173.48877,24.87733ZM165.67188,69.4369c0,.43945-.14014.61914-.44043.74024h-3.80079c-.31982-.1211-.43994-.24024-.43994-.74024,0-.28125,0-.32031.04-.40039a.72215.72215,0,0,1,.30029-.30078c.07959-.03906.09961-.06055.52-.06055h.44V66.435c0-1.33985,0-2.32031-.02-2.41992-.08008-.75977-.41993-1.041-1.24024-1.041a2.35014,2.35014,0,0,0-1.84033.90039,3.62494,3.62494,0,0,0-.3999.83984l-.04.20118-.02,1.88086v1.8789h1.26025a.72488.72488,0,0,1,.43994.76172c0,.43945-.14013.61914-.43994.74024h-4.18115c-.31982-.10157-.46-.30079-.46-.74024a.69939.69939,0,0,1,.46-.76172h1.24023V63.0951h-.62011l-.62012-.01953c-.31982-.10156-.46-.30078-.46-.74023a.69938.69938,0,0,1,.46-.76172h1.24023c1.22022,0,1.24024.02148,1.32032.06055a.6231.6231,0,0,1,.36035.58007c0,.1211,0,.1211.04.09961A3.92114,3.92114,0,0,1,161.231,61.474a3.04073,3.04073,0,0,1,1.46.25977,2.28005,2.28005,0,0,1,1.16064,1.52148c.11963.43945.09961.35938.11963,2.98047v2.43945h1.26026A.72459.72459,0,0,1,165.67188,69.4369Zm-8.24024-44.73926c.26025-.11914.36035-.30078.36035-.69922a.69824.69824,0,0,0-.18017-.58007c-.14014-.16016-.2002-.16016-.74024-.18164a6.16571,6.16571,0,0,1-.93994-.09961V20.95741c0-1.32031,0-2.2207-.02-2.32031a3.49276,3.49276,0,0,0-3.08105-2.64063c-.15967-.02148-.79981-.02148-1.3003-.02148a3.29463,3.29463,0,0,0-2.32031.62109,1.24193,1.24193,0,0,0-.41992.98047,1.04507,1.04507,0,0,0,1.96045.51953,2.05335,2.05335,0,0,0,.13965-.58008h.12011a7.11064,7.11064,0,0,1,.78028-.01953,7.81869,7.81869,0,0,1,.86035.01953c.91992.17969,1.6001.78125,1.6001,1.44141V19.057h-.1001c-.17969,0-.85986.03906-1.14014.05859-2.1206.20117-4.74072.88086-4.74072,2.82227a3.032,3.032,0,0,0,3.14062,2.93945,5.806,5.806,0,0,0,2.8003-.7207l.20019-.11914c.06006.06054.1001.11914.22022.24023.46.41992.8999.46094,2,.46094C157.31152,24.73866,157.35156,24.73866,157.43164,24.69764Zm-3.18066-3.4414a3.16282,3.16282,0,0,1-.06006.84179,2.39679,2.39679,0,0,1-2.40039,1.25977c-.98,0-1.84033-.58008-1.84033-1.40039,0-.24024.12011-.41992.41992-.6211a8.15979,8.15979,0,0,1,3.7207-.79882h.16016Zm12.69287.41992a1.733,1.733,0,0,1,.04.502v.1582a2.10327,2.10327,0,0,1-.1001.60157c-.40039,1.24023-1.72022,1.93945-3.64063,1.93945a4.53979,4.53979,0,0,1-2.36084-.53906.94626.94626,0,0,0-.17968-.10156s-.06006.10156-.12012.2207a.654.654,0,0,1-.68018.41992.59886.59886,0,0,1-.60009-.37891,5.04142,5.04142,0,0,1-.04-1.32031c0-1.4414,0-1.38086.17968-1.56055.16016-.16015.22022-.17968.68018-.17968.36035,0,.44043.01953.58057.11914.09961.06054.15966.16015.25976.40039A1.96053,1.96053,0,0,0,163.023,23.3578c1.14014,0,2.48047-.24024,2.48047-1.17969,0-.32031-.22022-.582-.66016-.80078a5.0967,5.0967,0,0,0-1.90039-.46094,9.5374,9.5374,0,0,1-1.82031-.40039c-1.16016-.39844-1.86035-1.11914-1.86035-2.09961a2.10636,2.10636,0,0,1,.62011-1.48047,3.96611,3.96611,0,0,1,2.52051-.96093c.12012,0,.46-.01953.78028-.01953a4.61662,4.61662,0,0,1,1.72021.28125.81442.81442,0,0,1,.18018.05859c.02,0,.08007-.05859.15966-.13867a.59329.59329,0,0,1,.52051-.20117.60078.60078,0,0,1,.6001.38085c.04.09961.04.13868.04,1.09961,0,.93946,0,.98047-.04,1.08008-.12012.32031-.28027.38086-.80029.38086-.62012,0-.8003-.12109-.84034-.62109a.56729.56729,0,0,0-.3999-.58008,2.94076,2.94076,0,0,0-1.36035-.21875,3.839,3.839,0,0,0-1.68018.29883.76908.76908,0,0,0-.5205.64062.52426.52426,0,0,0,.26025.43946c.84033.58007,2.26025.4414,3.94092.96093A2.93377,2.93377,0,0,1,166.94385,21.67616Zm21.19189,1.74219c-.14013-.16016-.20019-.16016-.74023-.18164a6.16571,6.16571,0,0,1-.93994-.09961V20.95741c0-1.32031,0-2.2207-.02-2.32031a3.49278,3.49278,0,0,0-3.08106-2.64063c-.15967-.02148-.7998-.02148-1.30029-.02148a3.29462,3.29462,0,0,0-2.32031.62109,1.24191,1.24191,0,0,0-.41993.98047,1.04507,1.04507,0,0,0,1.96045.51953,2.07022,2.07022,0,0,0,.13965-.58008h.12012a7.11053,7.11053,0,0,1,.78027-.01953,7.81858,7.81858,0,0,1,.86035.01953c.91993.17969,1.6001.78125,1.6001,1.44141V19.057h-.1001c-.17968,0-.85986.03906-1.14013.05859-2.12061.20117-4.74121.88086-4.74121,2.82227a3.03245,3.03245,0,0,0,3.14111,2.93945,5.806,5.806,0,0,0,2.80029-.7207l.2002-.11914c.06006.06054.1001.11914.22021.24023.46.41992.89991.46094,2,.46094.68018,0,.72022,0,.8003-.041.26025-.11914.36035-.30078.36035-.69922A.69821.69821,0,0,0,188.13574,23.41835Zm-3.36084-2.16211a3.16282,3.16282,0,0,1-.06006.84179,2.39678,2.39678,0,0,1-2.40039,1.25977c-.98,0-1.84033-.58008-1.84033-1.40039,0-.24024.12012-.41992.41992-.6211a8.15987,8.15987,0,0,1,3.72071-.79882h.16015Zm22.37256,2.74218c0,.5-.12012.58008-.44043.74024h-6.92139c-.31982-.10156-.43994-.26172-.43994-.74024,0-.502.14014-.60156.43994-.76171h2.78077V17.65663h-1.32032l-1.30029-.01953c-.32031-.10157-.44043-.30079-.44043-.74024,0-.4414.12012-.64062.44043-.74023.02-.02149.8999-.02149,1.96045-.02149h1.90039c.16016.1211.31982.20117.3999.40039a25.33932,25.33932,0,0,1,.04,3.40039v3.30079h1.22022c1.20019,0,1.24023.02148,1.32031.06054C207.06738,23.41835,207.14746,23.57655,207.14746,23.99842Zm-.71,45.43848c0,.43945-.14014.61914-.44043.74024h-3.80078c-.31983-.1211-.43994-.24024-.43994-.74024,0-.28125,0-.32031.04-.40039a.72209.72209,0,0,1,.30029-.30078c.07959-.03906.09961-.06055.52-.06055h.43994V66.435c0-1.33985,0-2.32031-.02-2.41992-.08008-.75977-.41992-1.041-1.24023-1.041a2.35016,2.35016,0,0,0-1.84034.90039,3.62535,3.62535,0,0,0-.3999.83984l-.04.20118-.02,1.88086v1.8789h1.26026a.72489.72489,0,0,1,.43994.76172c0,.43945-.14014.61914-.43994.74024H196.5752c-.31983-.10157-.46-.30079-.46-.74024a.69938.69938,0,0,1,.46-.76172h1.24023V63.0951h-.62012l-.62011-.01953c-.31983-.10156-.46-.30078-.46-.74023a.69938.69938,0,0,1,.46-.76172h1.24023c1.22021,0,1.24023.02148,1.32031.06055a.62308.62308,0,0,1,.36035.58007c0,.1211,0,.1211.04.09961a3.92118,3.92118,0,0,1,2.46045-.83984,3.0407,3.0407,0,0,1,1.46.25977,2.28009,2.28009,0,0,1,1.16065,1.52148c.11963.43945.09961.35938.11963,2.98047v2.43945h1.26025A.72459.72459,0,0,1,206.4375,69.4369ZM191.6543,24.018c.31982,0,.91992.56054,1.20019.66015a3.61656,3.61656,0,0,0,1.14014.19922,3.89357,3.89357,0,0,0,3.18066-1.69922,4.68808,4.68808,0,0,0,.82032-2.12109,4.76074,4.76074,0,0,0,.02-.64063,4.45907,4.45907,0,0,0-1.0205-3.041,3.5159,3.5159,0,0,0-2.72071-1.35938,4.5171,4.5171,0,0,0-2.46045.69922l-.17968.12109v-.0996a.62174.62174,0,0,0-.36035-.541c-.08008-.03906-.1001-.06055-1.32032-.06055h-1.24023a.69938.69938,0,0,0-.46.76172c0,.43945.14013.63867.46.74024l.62012.01953h.62011V27.67811h-1.24023a.69833.69833,0,0,0-.46.75977c0,.4414.14013.64062.46.74023h4.18115c.29981-.11914.43994-.29883.43994-.74023a.72379.72379,0,0,0-.43994-.75977h-1.26025V25.83827C191.63428,24.39686,191.63428,24.018,191.6543,24.018Zm-.02-5.06055.07959-.14063a2.43941,2.43941,0,0,1,2.1206-1.28125,2.67508,2.67508,0,0,1,2.52051,2.92188,2.77852,2.77852,0,0,1-2.6206,2.90039c-1.24024,0-1.76026-1.02149-2.1001-1.94141ZM311.48,10.53553h.17969c2.08056,0,3.62109.7002,4.001,2.10059.1001.31934.04,5.36035.1001,5.76074a2.59237,2.59237,0,0,0,2.48047,1.76074c.29981,0,.33984.04.33984.37989s-.04.37988-.33984.37988a2.642,2.642,0,0,0-2.38037,1.48047c-.14014.36035-.12012.12012-.14014,3.14062a21.23494,21.23494,0,0,1-.06006,2.90039,1.8958,1.8958,0,0,1-.64013,1.06055,4.86355,4.86355,0,0,1-3.34082,1.04H311.46c-.22021,0-.26025-.04-.26025-.40039,0-.2793.02-.33984.24023-.33984a2.56376,2.56376,0,0,0,2.60059-1.48047c.02-.09961.02-.29981.03955-2.83985l.02-2.7207a3.07149,3.07149,0,0,1,2.40088-2.2207,7.00866,7.00866,0,0,1-1.00049-.40039,2.71242,2.71242,0,0,1-1.36035-1.63965l-.04-.2002-.02-2.7207c-.01953-2.52051-.01953-2.7207-.03955-2.84082a2.5805,2.5805,0,0,0-2.60059-1.46c-.22021,0-.24023-.06055-.24023-.36035C311.19971,10.55506,311.21973,10.53553,311.48,10.53553Z"/>
  <g>
    <path class="b" d="M351.54546,4.95645l.031-.29425.293-.03663.84367.58979-.07831.39693-.44429.13678Z"/>
    <path class="c" d="M352.759,6.44764l-.56852-.69857.5226-.5337.74357.5198-.21509.454Z"/>
    <path class="d" d="M351.87377,4.6286l-.325.33192-.56377-.69274a.10909.10909,0,0,1,.14977-.1558Z"/>
    <path class="e" d="M353.43756,5.72177l.97446.68122c.39733.95487-.39051,1.09841-.83409,1.05083l-.83352-1.02418Z"/>
    <path class="f" d="M353.78469,5.71465c.44725-.57826,2.44339-.91235,1.32409.15548-.66425.63492-.38666,1.31006-1.23807,1.67081-1.43354.53547-1.85214-.62-1.703-.76658s.48327.16723.88879,0C353.30849,6.67042,353.33745,6.29291,353.78469,5.71465Z"/>
    <path class="g" d="M351.68683,11.69176l3.1634-.67822q.082-.01947.16555-.04415a6.08886,6.08886,0,0,0-1.47036,3.11581h5.62589a1.39572,1.39572,0,0,0,1.32848-1.52313c-.21945-2.27952-1.02216-6.47615-3.974-6.50422a1.29471,1.29471,0,0,0-1.68293-.14534c-1.25428,1.233-2.43166,2.51657-3.22744,3.38414-.24731.26963-.45777.49907-.62222.67432-.6936.73914-.53213,1.3456.08073,1.65224A.94268.94268,0,0,0,351.68683,11.69176Z"/>
    <path class="h" d="M360.5395,9.3898c0-1.319-.85247-1.51819-1.18122-1.51069a5.18288,5.18288,0,0,1-.35553,2.52527,6.14106,6.14106,0,0,0,.172,3.68645c.98055,0,1.36471-.124,1.36471-.823Z"/>
    <path class="i" d="M359.61059,9.5025c.38992-1.443-.6881-2.94237-1.53675-2.94237a4.01687,4.01687,0,0,1,0,3.01,8.1796,8.1796,0,0,0-.36127,4.52066h1.74319A7.04566,7.04566,0,0,1,359.61059,9.5025Z"/>
    <path class="j" d="M355.03472,10.94554c2.83269-2.31109,1.34181-4.31777-.52751-4.701,2.63767-1.97289,3.25315,1.95406,2.78678,3.29183A7.43925,7.43925,0,0,1,355.03472,10.94554Z"/>
    <path class="f" d="M357.93049,14.0852h-2.43128c-.58351-2.43868,1.39315-4.06282,1.52527-5.881A2.12935,2.12935,0,0,0,355.652,5.75469c-.48442.119.37066.45093-.57984.45093l-.24955-.52308-.2523-.40763a3.18247,3.18247,0,0,1,2.33381.14658,3.11568,3.11568,0,0,1,1.72024,3.44969C358.23439,10.33677,357.3112,11.39359,357.93049,14.0852Z"/>
    <path class="e" d="M357.93049,14.0852h-.51862a5.0224,5.0224,0,0,1-.20959-1.61775,7.58249,7.58249,0,0,1,.79177-2.99284c.054-.13647.1112-.28088.17153-.43431a3.40593,3.40593,0,0,0-.61929-3.15658l.06037.00848a3.006,3.006,0,0,1,1.01765,2.979,10.34746,10.34746,0,0,1-.34647,1.0188A6.25406,6.25406,0,0,0,357.93049,14.0852Z"/>
    <path class="e" d="M359.61059,9.5025a2.65079,2.65079,0,0,0-.3006-2.00665h-.02052c.01832.10176.04235.2097.06757.323a3.00535,3.00535,0,0,1,.01273,1.75134l-.00139.00379a8.94173,8.94173,0,0,0-.75552,3.42336,4.53188,4.53188,0,0,0,.31792,1.09351h.525a6.99654,6.99654,0,0,1,.14514-4.55248Z"/>
    <path class="g" d="M355.28126,6.52068c-.6823.09018-.875-.25366-.91743-.885s-.03211-.81574-.03211-.81574a.14.14,0,0,1,.23854-.09741s1.20419.9357,1.25579,1.2739S355.56564,6.4831,355.28126,6.52068Z"/>
    <g>
      <path class="k" d="M353.96819,7.59729a.3639.3639,0,0,0-.367.36075v.36075a.367.367,0,0,0,.734,0V7.958A.3639.3639,0,0,0,353.96819,7.59729Z"/>
      <path class="k" d="M351.36646,10.59193a.29153.29153,0,0,1-.40368,0l.40368-.39686A.2797.2797,0,0,1,351.36646,10.59193Z"/>
      <path class="k" d="M352.75224,11.46333l-.684.14664a.6455.6455,0,0,0,.4087-.71136.185.185,0,0,1,.15332-.21324.18755.18755,0,0,1,.21694.15072A.9955.9955,0,0,1,352.75224,11.46333Z"/>
    </g>
  </g>
  <g>
    <path class="l" d="M328.80779,18.92123l-.97774-.97773,7.8219-7.82191.97773.97774Z"/>
    <path class="m" d="M335.16308,10.61046l.97773.97774.81842-.81509a.60558.60558,0,0,0,0-.81871l-.16157-.162a.68668.68668,0,0,0-.90128.08477Zm-7.6569,8.43377.20043.201a.54662.54662,0,0,0,.78708-.00489l.803-.80527-.97774-.98047-.81274.79544A.56031.56031,0,0,0,327.50618,19.04423Z"/>
    <path class="d" d="M339.98865,6.90651a.61374.61374,0,0,0,.31419.3102l.59408.25771a.22144.22144,0,0,1,0,.40565l-.58914.25771a.59626.59626,0,0,0-.31424.3102l-.46643,1.05947a.2364.2364,0,0,1-.4173,0L338.64338,8.448a.61394.61394,0,0,0-.31424-.3102L337.74,7.88007a.22144.22144,0,0,1,0-.40565l.58914-.25771a.59629.59629,0,0,0,.31424-.3102l.46643-1.05947a.2364.2364,0,0,1,.4173,0ZM334.401,7.483a.43227.43227,0,0,1-.2238-.21415l-.33067-.72811a.17431.17431,0,0,0-.30017,0l-.33062.72811a.41472.41472,0,0,1-.22385.21415l-.42224.17608a.151.151,0,0,0,0,.28077l.42224.17608a.43259.43259,0,0,1,.22385.21415l.33062.72812a.17431.17431,0,0,0,.30017,0l.33067-.72812a.41449.41449,0,0,1,.2238-.21415l.42224-.17608a.151.151,0,0,0,0-.28077Zm4.64889,5.22842a.46348.46348,0,0,1-.225-.23421l-.335-.79319a.164.164,0,0,0-.2983,0l-.335.79319a.46316.46316,0,0,1-.225.23421l-.41877.19169a.16924.16924,0,0,0,0,.30339l.41877.19169a.46352.46352,0,0,1,.225.23421l.335.79319a.164.164,0,0,0,.2983,0l.335-.79319a.46316.46316,0,0,1,.225-.23421l.41877-.19169a.16924.16924,0,0,0,0-.30339Zm-6.82-1.12322a.48887.48887,0,1,0-.48887-.48887A.48886.48886,0,0,0,332.22987,11.5882Zm8.79963-.48887a.48887.48887,0,1,1-.48887-.48887A.48886.48886,0,0,1,341.0295,11.09933ZM335.652,6.69951a.48887.48887,0,1,0-.48887-.48887A.48886.48886,0,0,0,335.652,6.69951Zm.48886,8.31077a.48887.48887,0,1,1-.48886-.48887A.48886.48886,0,0,1,336.14081,15.01028Z"/>
  </g>
  <g>
    <path class="d" d="M372.44143,1.08989a.4187.4187,0,0,1-.22794-.227l-.34006-.771a.17369.17369,0,0,0-.30643,0l-.34006.771a.45767.45767,0,0,1-.228.227l-.43348.18736a.165.165,0,0,0,0,.299l.43348.18736a.41859.41859,0,0,1,.228.227l.34006.77462a.17367.17367,0,0,0,.30643,0l.34006-.77462a.45769.45769,0,0,1,.22794-.227l.4335-.18736a.165.165,0,0,0,0-.299Z"/>
    <path class="d" d="M377.81821,3.41236a1.33347,1.33347,0,0,1-.68639-.70611L376.10939.28937a.51127.51127,0,0,0-.92121,0l-1.02243,2.41688a1.35955,1.35955,0,0,1-.68639.70611l-1.29336.586a.52148.52148,0,0,0,0,.93179l1.29336.586a1.33344,1.33344,0,0,1,.68639.70611l1.02243,2.41689a.51127.51127,0,0,0,.92121,0l1.02243-2.41689a1.35951,1.35951,0,0,1,.68639-.70611l1.29336-.586a.52147.52147,0,0,0,0-.93179Z"/>
    <path class="d" d="M371.642,5.83228a.5914.5914,0,0,0,.29359.31132l.55345.2589a.23087.23087,0,0,1,0,.40928l-.55345.25889a.60418.60418,0,0,0-.29359.31133l-.43869,1.06349a.21771.21771,0,0,1-.39483,0L370.36983,7.382a.59146.59146,0,0,0-.29359-.31133l-.55343-.25889a.23084.23084,0,0,1,0-.40928l.55343-.2589a.60413.60413,0,0,0,.29359-.31132l.43869-1.0635a.21771.21771,0,0,1,.39483,0Z"/>
  </g>
  <path class="n" d="M8.57666,39.46918a4.19854,4.19854,0,0,0-.189-.90039,3.93469,3.93469,0,0,0-.38672-.83594,2.77413,2.77413,0,0,0-.603-.69335,2.30972,2.30972,0,0,0-.81006-.43165,3.1251,3.1251,0,0,0-.8999-.13476,3.18735,3.18735,0,0,0-.76514.08984,2.17041,2.17041,0,0,0-.68408.29688,2.37487,2.37487,0,0,0-.55811.51367,3.35639,3.35639,0,0,0-.40478.64648V36.61567H0v2.16015H.666V47.686H0v2.16016H4.4458V47.686H3.27588V44.5727a3.37062,3.37062,0,0,0,.40478.64844,2.3661,2.3661,0,0,0,.55811.51171,2.12644,2.12644,0,0,0,.68408.29688,3.18684,3.18684,0,0,0,.76514.08984,3.1251,3.1251,0,0,0,.8999-.13476,2.27842,2.27842,0,0,0,.81006-.43164,2.7405,2.7405,0,0,0,.603-.69336,3.93446,3.93446,0,0,0,.38672-.83594,4.19854,4.19854,0,0,0,.189-.90039c.02979-.30664.04541-.61523.04541-.92773V40.39692C8.62207,40.08442,8.60645,39.77582,8.57666,39.46918ZM6.01172,42.19575a2.88257,2.88257,0,0,1-.07178.64062,1.76411,1.76411,0,0,1-.25195.584,1.12,1.12,0,0,1-.47705.4043,1.46046,1.46046,0,0,1-.6211.13672,1.25471,1.25471,0,0,1-.59375-.1543A1.15024,1.15024,0,0,1,3.5459,43.393a1.57863,1.57863,0,0,1-.21582-.57617,3.6405,3.6405,0,0,1-.0542-.62109V40.39692a3.64052,3.64052,0,0,1,.0542-.6211,1.5787,1.5787,0,0,1,.21582-.57617,1.15024,1.15024,0,0,1,.45019-.41406,1.25238,1.25238,0,0,1,.59375-.15234,1.48825,1.48825,0,0,1,.6211.13476,1.12,1.12,0,0,1,.47705.4043,1.75673,1.75673,0,0,1,.25195.58594,2.85236,2.85236,0,0,1,.07178.63867Z"/>
  <path class="n" d="M19.42188,40.39692a5.853,5.853,0,0,0-.09913-1.07227,3.59308,3.59308,0,0,0-.34228-.998,3.19643,3.19643,0,0,0-.63867-.8457,3.25732,3.25732,0,0,0-.88233-.60351,4.00643,4.00643,0,0,0-1.0166-.31446,6.42926,6.42926,0,0,0-2.14209,0,4.01007,4.01007,0,0,0-1.01709.31446,3.24736,3.24736,0,0,0-.88183.60351,3.19811,3.19811,0,0,0-.63916.8457,3.561,3.561,0,0,0-.3418.998,5.81037,5.81037,0,0,0-.09912,1.07227v1.79883A5.79472,5.79472,0,0,0,11.4209,43.268a3.37476,3.37476,0,0,0,1.89892,2.44727,3.92011,3.92011,0,0,0,1.02588.31445,6.50018,6.50018,0,0,0,1.08008.08984,7.88385,7.88385,0,0,0,.918-.05273,4.37126,4.37126,0,0,0,.89111-.207,3.54857,3.54857,0,0,0,.82764-.41406,3.17082,3.17082,0,0,0,.67529-.61133,2.71051,2.71051,0,0,0,.44971-.793,3.3484,3.3484,0,0,0,.19824-.89063h-2.376a.99911.99911,0,0,1-.19825.4668,1.13417,1.13417,0,0,1-.38672.334,1.63982,1.63982,0,0,1-.48632.16211,3.08385,3.08385,0,0,1-.5127.04493,2.09024,2.09024,0,0,1-.71094-.127,1.26419,1.26419,0,0,1-.57617-.40429,1.74642,1.74642,0,0,1-.32422-.62891,3.25108,3.25108,0,0,1-.1167-.73047h5.72413Zm-5.72413-.07227a3.5512,3.5512,0,0,1,.10791-.71094,1.65459,1.65459,0,0,1,.31495-.63086,1.36493,1.36493,0,0,1,.5581-.41406,1.84858,1.84858,0,0,1,1.38574,0,1.365,1.365,0,0,1,.55811.41406,1.65472,1.65472,0,0,1,.31494.63086,3.5868,3.5868,0,0,1,.1084.71094Z"/>
  <path class="n" d="M38.69922,42.48475h2.62793v.17969a4.57787,4.57787,0,0,1-.08985.90039,4.13652,4.13652,0,0,1-.27.85547,2.87831,2.87831,0,0,1-.48584.74609,2.67694,2.67694,0,0,1-.69336.5586,2.852,2.852,0,0,1-.83692.30468,4.53615,4.53615,0,0,1-.8999.08985,4.32833,4.32833,0,0,1-.96289-.10742,2.62764,2.62764,0,0,1-.88233-.377,2.68793,2.68793,0,0,1-.69287-.67578,3.78119,3.78119,0,0,1-.68408-1.791,8.89552,8.89552,0,0,1-.05371-.97266V38.77577H33.24512V36.61561h1.53027V32.74647h2.60986v3.86914h3.11426v2.16016H37.38525v3.41992q0,.16405.00928.334c.00586.11329.01465.22852.02686.3418a3.31045,3.31045,0,0,0,.05371.3418,2.13388,2.13388,0,0,0,.09912.334.83.83,0,0,0,.189.28711.39785.39785,0,0,0,.28809.127.41794.41794,0,0,0,.35107-.18164,1.23056,1.23056,0,0,0,.19776-.38671,1.97826,1.97826,0,0,0,.08105-.41407c.01172-.13672.01807-.27929.01807-.42187Z"/>
  <path class="n" d="M30.0415,42.92616a2.59361,2.59361,0,0,1,.0542.53125,2.63185,2.63185,0,0,1-.1084.74609,2.68361,2.68361,0,0,1-.30566.6836,2.38928,2.38928,0,0,1-.48633.55859,2.57324,2.57324,0,0,1-.63867.39648,3.07929,3.07929,0,0,1-.72021.21485,4.33385,4.33385,0,0,1-.74707.0625,5.27528,5.27528,0,0,1-.74707-.05274,4.01446,4.01446,0,0,1-.729-.17968,3.6374,3.6374,0,0,1-.68359-.32422,3.11571,3.11571,0,0,1-.57617-.45117v.86523h-2.0879V42.71913h2.0879v.80859a.27542.27542,0,0,0,.10791.2168,1.04618,1.04618,0,0,0,.22509.14453c.07764.03516.15577.06836.23389.09766a1.455,1.455,0,0,0,.24316.07226c.0835.01758.168.0332.252.04492s.168.02149.252.02735.1709.01172.26123.01757c.08984.00586.17676.00977.26074.00977a4.19125,4.19125,0,0,0,.46826-.02734,2.327,2.327,0,0,0,.459-.09961,1.03956,1.03956,0,0,0,.40478-.24219.53885.53885,0,0,0,.18018-.4043.70056.70056,0,0,0-.189-.46875,1.37862,1.37862,0,0,0-.42334-.332,1.98034,1.98034,0,0,0-.49463-.17187q-.26148-.05274-.53125-.09961c-.18018-.0293-.35743-.0625-.53077-.09766-.17431-.03711-.34521-.07812-.51318-.127-.16846-.04688-.33594-.10547-.50391-.16992a4.50956,4.50956,0,0,1-.48632-.22657,3.13246,3.13246,0,0,1-.44092-.28711,4.12094,4.12094,0,0,1-.396-.35156,2.41315,2.41315,0,0,1-.333-.41406,3.5278,3.5278,0,0,1-.252-.4668,2.49674,2.49674,0,0,1-.16211-.5039,2.64316,2.64316,0,0,1-.05371-.53125,2.7929,2.7929,0,0,1,.21582-1.08008,2.41667,2.41667,0,0,1,.62988-.89063,2.48393,2.48393,0,0,1,.95411-.53125,3.696,3.696,0,0,1,1.08007-.16211,5.27528,5.27528,0,0,1,.74707.05274,3.80993,3.80993,0,0,1,.71973.18164,3.73463,3.73463,0,0,1,.67529.32226,3.12847,3.12847,0,0,1,.57569.45118v-.86524h2.08838v3.25977H27.98926v-.81055a.274.274,0,0,0-.10791-.2168,1.2623,1.2623,0,0,0-.21582-.14453,1.59453,1.59453,0,0,0-.23389-.08984q-.12671-.03516-.252-.07031a1.68021,1.68021,0,0,0-.25244-.05469c-.084-.01172-.168-.02149-.252-.02735l-.252-.01757c-.084-.00586-.168-.00977-.252-.00977a3.56715,3.56715,0,0,0-.43213.02734,1.98707,1.98707,0,0,0-.42285.09961.91725.91725,0,0,0-.36914.24219.55206.55206,0,0,0-.16163.38672.71022.71022,0,0,0,.17969.47852,1.44426,1.44426,0,0,0,.42334.332,1.90759,1.90759,0,0,0,.50391.17968q.26075.05567.522.09961.26075.044.522.09961c.17383.03516.34766.07813.522.125a4.76221,4.76221,0,0,1,.981.39649,3.651,3.651,0,0,1,.4502.28711,3.22445,3.22445,0,0,1,.396.35156,3.32008,3.32008,0,0,1,.333.41406,3.02828,3.02828,0,0,1,.26074.46875A2.46553,2.46553,0,0,1,30.0415,42.92616Z"/>
</svg>
