<svg xmlns="http://www.w3.org/2000/svg" xmlns:xlink="http://www.w3.org/1999/xlink" viewBox="0 0 116.61584 132.08651">
  <defs>
    <radialGradient id="a" cx="55.30792" cy="70.35167" r="26.89117" gradientTransform="translate(0 -11.82378) scale(1 0.90953)" gradientUnits="userSpaceOnUse">
      <stop offset="0" stop-color="#d7402b" stop-opacity="0.5"/>
      <stop offset="0.16457" stop-color="#d7402b" stop-opacity="0.4743"/>
      <stop offset="0.37401" stop-color="#d7402b" stop-opacity="0.40082"/>
      <stop offset="0.60777" stop-color="#d7402b" stop-opacity="0.27959"/>
      <stop offset="0.8574" stop-color="#d7402b" stop-opacity="0.11179"/>
      <stop offset="1" stop-color="#d7402b" stop-opacity="0"/>
    </radialGradient>
  </defs>
  <g>
    <g>
      <path d="M76.0512,110.973c-.00054.94651.24785,1.95543-.74949,2.7557-5.413,4.34332-4.565,11.86622,1.61951,14.29183,1.35156.53007,2.9408,1.28576,2.73181,2.59553-.31483,1.97316-2.41712,1.293-3.82924,1.45228-1.48052.167-2.50023-.85168-3.632-1.61494-4.07293-2.74683-4.949-6.80039-4.3533-11.24045.56358-4.201-1.35611-5.29172-5.11355-5.14639-4.59436.17771-9.20078.03605-13.80194.049-1.473.00416-3.78119-.36045-3.28506,1.89341,1.33325,6.05686-5.28564,9.57384-4.5407,15.33576.02243.17361-.72342.63978-1.114.64325-3.14122.02794-6.32417.16954-9.65763-1.82533,1.7242-1.20993,2.88617-2.5005,4.31034-2.94009,5.34437-1.64958,5.79845-6.15911,6.51757-10.54567.218-1.33.4528-3.04486-1.67169-2.86955-3.2888.27141-5.72515.0038-5.40626-4.34274.10782-1.46963-1.8377-1.21832-2.862-1.5622-14.7291-4.9451-23.0209-19.14138-20.13079-34.60267A26.99531,26.99531,0,0,1,15.19714,62.4075a2.09,2.09,0,0,1,2.616-.9668c1.809.69424.12181,1.63917-.02432,2.37338-.39687,1.99412-1.13577,3.91724-1.60209,5.90078C13.37286,81.68414,18.72316,94.79319,28.384,99.69315c5.32295,2.69978,5.96917,2.36793,5.90283-3.43534-.34519-30.19623.49883-60.3804.91346-90.5686C35.22583,3.83109,34.38494,1.59136,36.70992,0A17.027,17.027,0,0,1,41.3991,13.03378c-.18447,2.90176.76236,3.85975,3.69963,3.80774,6.64131-.1176,13.29734-.07116,19.93.2585,3.63316.18057,5.26365-.64507,5.01338-4.68828-.27862-4.501,1.02932-8.61213,6.0269-11.9303C76.069,38.00434,76.07224,74.48867,76.0512,110.973ZM64.21536,58.48616c3.33048-.28424,4.78179-2.25325,4.73691-5.32481-.04571-3.12784-2.37363-4.51748-5.00782-4.5482-3.09825-.03613-3.65576,2.87621-4.65318,5.08265C60.33489,56.05846,60.72467,58.78408,64.21536,58.48616Zm-17.05748-.4971c2.75813.14431,4.244-1.71486,4.44091-4.41564.25066-3.43835-2.38758-4.2404-4.84693-4.39574-2.50669-.15833-4.56343,1.03427-4.48093,4.14544C42.39067,56.44557,44.45976,57.84788,47.15788,57.98906Z" fill="#ffb5b5"/>
      <path d="M59.29127,53.6958c1.04362,2.36266,1.4334,5.08828,4.92409,4.79036,3.33048-.28424,4.78179-2.25325,4.73691-5.32481-.04571-3.12784-2.37363-4.51748-5.00782-4.5482C60.8462,48.577,60.28869,51.48936,59.29127,53.6958Z" fill="#d7402b"/>
      <path d="M42.27093,53.32312c.11974,3.12245,2.18883,4.52476,4.88695,4.66594,2.75813.14431,4.244-1.71486,4.44091-4.41564.25066-3.43835-2.38758-4.2404-4.84693-4.39574C44.24517,49.01935,42.18843,50.212,42.27093,53.32312Z" fill="#d7402b"/>
    </g>
    <g>
      <path d="M88.79677,34.29809c.438-3.64981.95522-7.2969,1.03724-11.01419A106.6911,106.6911,0,0,1,88.4934,34.26906c-.771-4.72143,1.56814-9.41753.95544-14.48835-.40417,2.28943-.23539,5.17586-.71915,7.64616-.28073-5.50143,2.26461-13.57833-.64842-16.91625,1.92881-.87184,2.3463-.13362-.09667-1.33387C86.47,6.22988,94.65679,8.0124,96.58527,8.04917c8.5691-.43559,14.29161,13.28436,4.00407,15.22757-6.98012,1.0176-7.81-.10709-.40694-.5495-10.02418-.26259-6.9011,1.594-8.18319,10.75155-1.426,3.11483-.2126-3.33647-.35-3.49987C91.73145,31.87369,90.20565,38.02537,88.79677,34.29809Zm1.673-19.213c.39735-.82973.44094-2.50981.79195-3.357C90.41112,10.97249,90.68337,14.94407,90.46977,15.08508Zm2.91649,5.47356c3.19269.2843,11.03178.84421,9.41728-4.38025,1.291,4.97574-5.75117,4.59169-8.91668,4.12094,5.323-.45251,13.28833-1.3008,5.79406-7.40745,1.52985,1.15267,4.53481,5.23883.917,6.51138C106.60667,13.47216,89.55443,6.14568,93.38626,20.55864Z" fill="#ffb5b5"/>
      <path d="M97.06467,59.81466c-10.62975,2.89964-14.02718-12.01678-6.50379-17.535-7.33341,5.09693-4.69756,19.814,5.64877,17.96452C80.6985,63.53732,84.07112,37.72783,98.28914,39.235c-8.24962-.93729-14.38907,7.67044-12.24367,15.26027-6.0806-10.75008,18.4124-24.04026,15.95719-8.82762C98.503,56.35718,86.392,43.26755,90.08594,54.53662c.81209,2.08953,3.26575,2.34574,5.12764,2.74175-.455,1.28572-4.055-.32563-4.927-1.26126a6.06348,6.06348,0,0,0,5.029,1.79815C94.94673,59.21842,100.65281,55.81334,97.06467,59.81466ZM90.22548,55.943a7.02719,7.02719,0,0,1-.71286-1.0873A3.46773,3.46773,0,0,0,90.22548,55.943Zm1.663-7.557c.59243-.43024-1.71752-1.5499-1.60267-.66191Zm1.78314-2.34681c2.1489,1.04125,4.21966-.70472,4.81877-2.80837-2.06537.06914-5.28635.64256-6.74008,2.28774C92.39285,45.71014,93.03457,45.88633,93.67161,46.03916Z" fill="#ffb5b5"/>
      <path d="M83.8178,86.46758C87.32689,89,94.94005,93.1704,95.66118,85.91646c.11142-4.81984-7.02863-1.67051-9.9471-3.34855,4.2869,1.26391,15.87685.77564,6.62393,7.25068,11.85694-9.41421-13.07966-2.82482-10.61759-12.826C84.7931,62.09624,103.2075,79.39976,94.62571,74.539c-.087.83119,3.8486,5.12316.39892,3.33374-2.10844-2.80182-11.48448-4.66161-8.40771.87365,24.09131-.72337,9.16137,25.37724-4.72176,10.08851,2.3874,1.1329,5.08707,4.01966,8.3133,4.1134C86.03362,93.4417,77.13555,83.36325,83.8178,86.46758Zm7.12153,4.135a11.34885,11.34885,0,0,1-5.15817-2.2517c4.16822,5.86578,15.48346-.91546,8.358-5.39746C98.65352,84.57462,95.06856,91.61281,90.93933,90.60253Zm1.36163-.7539c-.022-.002-.04505-.004-.06708-.007C92.25591,89.84462,92.27894,89.84662,92.301,89.84863Zm2.79235,2.472a6.219,6.219,0,0,0,2.498-2.72126,6.767,6.767,0,0,1-5.21124,3.38405A5.9939,5.9939,0,0,0,95.09331,92.32059Zm3.79554-6.03123a5.72628,5.72628,0,0,0-.18221-1.30957,9.31653,9.31653,0,0,1-1.07129,4.52142A10.87225,10.87225,0,0,0,98.88885,86.28936Zm-.1732-1.40969-.009.10012Z" fill="#ffb5b5"/>
      <path d="M94.2523,109.91165a12.15523,12.15523,0,0,0-3.41008.4946,20.33479,20.33479,0,0,1,3.28093-.20124c-1.66166,1.68645-4.66961-.12481-6.31857.69583a17.21235,17.21235,0,0,0,2.64016.11414c-4.3407-1.33787-4.19666,7.70745-2.70064,9.90726,5.80094,1.00642,4.6123,1.922-.48718.4972,8.0526,1.21665,8.71884,4.92624-.13015,2.467a17.81088,17.81088,0,0,0,5.25229,1.24349c-9.49521,1.88118-9.85188-6.88855-8.49-13.951-.62868-1.578-.60952,6.62347-.91629,8.104a51.8621,51.8621,0,0,1,.61874-8.74347c-1.20146.23148-3.89672-1.8052-1.694-1.8598-.25678-.9267-1.62981-2.66559.64513-2.52156,4.10915,1.971,2.345-7.49681,5.43724-7.03279-.35275,4.15942,2.56385-4.35733,2.412,1.62164-.62764,3.65754-3.31438,8.13648,2.58171,6.1559,1.53935.74557-1.32177.86118-1.90309,1.07854C92.77765,107.59,95.09754,107.6017,94.2523,109.91165ZM84.15721,121.50053c-.75919-2.194-.00772-6.346-.10412-8.64135C83.68406,115.67991,83.20117,119.2732,84.15721,121.50053Zm2.0905-1.638a16.052,16.052,0,0,1,.14217-2.22967c-.17026,1.09462-.61393,2.51693.09011,3.374C86.21812,120.63918,86.295,120.33764,86.24771,119.86257Zm.29636,1.18242a.09977.09977,0,0,0-.06408-.038A.09977.09977,0,0,1,86.54407,121.045Z" fill="#ffb5b5"/>
    </g>
  </g>
  <ellipse cx="55.30792" cy="52.16326" rx="26.89117" ry="24.45835" opacity="0.5" fill="url(#a)"/>
</svg>
