<svg xmlns="http://www.w3.org/2000/svg" xmlns:xlink="http://www.w3.org/1999/xlink" viewBox="0 0 116.61584 132.08651">
  <defs>
    <style>
      .a {
        fill: #060401;
      }

      .b {
        fill: #d7402b;
      }

      .c {
        opacity: 0.79;
        fill: url(#a);
      }
    </style>
    <radialGradient id="a" cx="72.0269" cy="49.35361" r="28.65756" gradientTransform="translate(-0.48521 8.41793) scale(1 0.76856)" gradientUnits="userSpaceOnUse">
      <stop offset="0" stop-color="#d7402b" stop-opacity="0.5"/>
      <stop offset="0.16457" stop-color="#d7402b" stop-opacity="0.4743"/>
      <stop offset="0.37401" stop-color="#d7402b" stop-opacity="0.40082"/>
      <stop offset="0.60777" stop-color="#d7402b" stop-opacity="0.27959"/>
      <stop offset="0.8574" stop-color="#d7402b" stop-opacity="0.11179"/>
      <stop offset="1" stop-color="#d7402b" stop-opacity="0"/>
    </radialGradient>
  </defs>
  <g>
    <path class="a" d="M114.32841,95.2927c5.03426-22.21137-1.46116-40.66149-18.4857-55.55631-1.40844-1.23223-2.781-2.05769-1.97132-4.50826,1.34648-4.0754-.05345-7.40681-3.36146-9.10584-7.94751-4.06971-8.67838,6.33032-11.26128,2.40663-1.99308-2.7457-4.57871-2.48349-5.66717.95656-1.31709,4.16256-4.16277,5.89407-7.82923,6.8963-2.5293.69139-4.40986,3.59406-7.60736,2.18411-.45267-.19968-.98861.81847-1.02953,1.48868-.123,2.01786-1.53378,3.3075-2.593,4.80051A53.26584,53.26584,0,0,0,47.254,57.98784c-.376,1.07736,3.53031,5.97828,3.75708,5.51294,2.04436-4.19441,5.5326,2.01792,7.56961-1.15682,2.54933,1.89568,30.80159,5.52461,22.80336,10.2878C77.54458,75.658,73.58091,78.53,69.79819,81.6235c-19.518,15.58347-7.31159,28.02916-16.32681,31.63129C35.63183,121.8785,11.043,103.60472,23.12909,84.39642c2.75665-5.38874,12.51369-9.452,11.55793-15.54342-4.26795,3.46216-8.89579,5.52036-12.55692,9.01544C-.91976,100.685,32.17644,131.90221,57.256,118.02324c1.5551-.79167,2.73273-1.807,4.3057.25832a20.01332,20.01332,0,0,0,13.19572,8.08207c1.39431.2066,2.04984,2.77307,3.66127,1.22972,1.61315-1.54509,3.46763-1.06382,5.23221-1.08572,7.01048-.08709,14.02254-.0291,21.03374-.06944.848-.0049,1.99668.36053,2.3825-.82567.3815-1.17288-.63723-1.37335-1.39792-1.93365a7.50226,7.50226,0,0,1-.81688-11.246A35.52528,35.52528,0,0,0,114.32841,95.2927Zm-24.155-58.95818c-1.27574.51923-2.901-.51217-3.63015-2.30376-.72928-1.79159-.28641-3.66494.98934-4.18417s2.901.51224,3.63014,2.30383C91.892,33.942,91.44913,35.81529,90.17338,36.33452Z"/>
    <g>
      <path class="a" d="M17.99478,73.06288C15.871,70.203,13.803,67.29354,11.38179,64.625c1.10949,1.63028,7.94428,9.47055,5.20585,7.9173-3.228-5.30359-11.54075-14.83814-3.2197-4.26768C9.51327,64.5769,5.79655,57.13853,1.63486,56.81c.806-1.81222,1.14416-1.52783-.95765-.87425-1.43078-10.50654,29.07728-12.55554,16.99809,3.009-4.53811,5.11113-2.43622,1.55307.61519-1.60958-6.55869,4.78288-3.42541,7.44587,1.41269,13.0165,1.07491,3.14347-2.37643-2.20572-2.58115-2.22877C18.51027,69.471,21.40042,74.56784,17.99478,73.06288ZM6.36429,58.43391c-.41317-.60007-1.3818-3.13489-2.03706-2.65191Zm5.70122,1.90552c2.4355-1.92738,8.31832-6.75962,3.70256-9.35894,6.76329,3.37856-10.24333,14.37336.1753,4.32093,3.44544-1.55456-2.35824-6.81981-4.518-4.33121,2.21719-.93118,6.52558.90469,4.94024,3.74943C14.8716,45.5168.82379,54.89766,12.06551,60.33943Z"/>
      <path class="a" d="M36.4667,47.25473c-5.5438,9.126-17.87643.90127-16.2651-7.9968-1.75887,8.47284,9.9058,17.06812,15.94881,8.86936C27.43837,60.78455,12.60236,40.38238,23.61,31.9662c-6.42993,4.839-5.00748,14.98608,1.56,18.8947-13.76294-4.77169,1.01343-32.27284,5.87236-14.1199.5731,4.31474-3.41485,6.55108-6.92812,7.615,1.28172,2.60105,4.4255,5.3264,7.36822,3.55553,4.55456-2.91.10178,1.78367-2.31638,1.191C32.64254,50.47121,36.46273,42.09907,36.4667,47.25473ZM24.89547,39.82709c2.20681-.69631,2.49789-3.30919,1.51693-5.18707C25.0124,35.64229,20.99584,42.46927,24.89547,39.82709Zm.31045,2.8394c.13269-.79736-1.47741.17355-1.7221.14157C23.38593,43.78493,24.85923,42.6526,25.20592,42.66649Zm3.8678,6.425a6.76354,6.76354,0,0,1-1.22481-.28921A3.40036,3.40036,0,0,0,29.07372,49.09151Z"/>
      <path class="a" d="M40.38115,36.73c14.69864-.69729,9.10284-16.17713-1.14381-3.85057,3.66619-3.25229,11.9997-8.77018,9.37.52789C51.09716,18.64222,34.29087,42.87,31.435,29.05914c-1.03174-11.45353,12.604-9.602,12.18719-6.15749-3.19678-.14384-12.79679,3.96017-6.41928,6.5317,4.23169-2.37809,9.5617-9.231,14.05025-3.01365,10.626,12.06863-23.9673,17.83338-2.05725,10.60935C46.81764,40.01611,34.16673,39.31293,40.38115,36.73Zm7.76645-1.83773a11.00606,11.00606,0,0,1-5.12982,1.8537c6.841,1.34766,10.28054-10.965,2.28105-9.368C49.55519,25.51,51.72376,32.849,48.1476,34.89227Zm.45364-1.43988c-.01588.01412-.03407.02828-.05113.04126C48.56717,33.48067,48.58536,33.46651,48.60124,33.45239Zm1.1997-7.77038c.01414.017.03305.04321.06018.0773C49.834,25.72522,49.81508,25.699,49.80094,25.682Zm1.06129.87544a5.47874,5.47874,0,0,0-1.00111-.79814,9.02486,9.02486,0,0,1,2.26141,3.8925A10.60878,10.60878,0,0,0,50.86223,26.55745Zm1.35183,6.7723a6.03391,6.03391,0,0,0-.05748-3.57941A6.54809,6.54809,0,0,1,50.746,35.604,5.7484,5.7484,0,0,0,52.21406,33.32975Z"/>
      <path class="a" d="M57.57478,9.13387a11.71392,11.71392,0,0,0-2.06928,2.6217c5.84381-5.75773-4.816,5.49388.12656.69168-3.90373,2.1389,2.103,8.06777,4.70331,8.76973,4.45179-2.95366,4.37957-1.63232-.01117.67335,6.07724-4.39027,9.13528-2.01208,1.55444,1.82335a17.306,17.306,0,0,0,4.52223-2.62779c-5.26348,7.81136-12.113,1.27159-15.59662-4.64738.37091,2.18207,3.79728,4.61269,5.08316,6.80543a50.56512,50.56512,0,0,1-5.39317-6.56118c-.68945.96538-3.948,1.32385-2.43116-.17924-.79864-.4817-2.92375-.7863-1.22642-2.20381,4.2109-.32683-4.5946-10.63967-.08349-7.60091.6362-.6421-.92785-4.27462,1.63282-1.90219,4.11516,10.53785,7.26184.84166,5.66357,5.10041C54.98745,8.48114,56.629,6.94783,57.57478,9.13387Zm.62394,14.88118c-1.99643-1.03829-4.23533-4.458-5.83382-6.00808C53.988,20.2374,56.04323,23.08453,58.19872,24.01505Zm.3784-2.54632a15.66639,15.66639,0,0,1-1.38555-1.6627c.61047.882,1.24613,2.18106,2.31137,2.31233C59.076,22.0349,58.92746,21.77113,58.57712,21.46873Zm.99817.6345a.097.097,0,0,0-.07235.01513A.097.097,0,0,1,59.57529,22.10323Z"/>
    </g>
    <path class="b" d="M66.68136,46.95146c.68342,2.43288,3.09937,3.04726,5.94817,2.51828,2.91216-.54075,4.13481-2.35886,3.85812-4.5345-.35227-2.76978-3.25653-2.77594-5.858-2.31479C67.97812,43.09049,66.03892,44.51863,66.68136,46.95146Z"/>
  </g>
  <ellipse class="c" cx="71.54169" cy="46.34906" rx="28.65756" ry="22.02501" transform="matrix(0.91759, -0.39754, 0.39754, 0.91759, -12.52945, 32.26036)"/>
</svg>
