<svg xmlns="http://www.w3.org/2000/svg" xmlns:xlink="http://www.w3.org/1999/xlink" viewBox="0 0 116.61584 132.08651">
  <defs>
    <radialGradient id="a" cx="46.16348" cy="42.7785" r="29.64006" gradientTransform="translate(-5.01797) scale(1.32593 1)" gradientUnits="userSpaceOnUse">
      <stop offset="0" stop-color="#d7402b" stop-opacity="0.5"/>
      <stop offset="0.16457" stop-color="#d7402b" stop-opacity="0.4743"/>
      <stop offset="0.37401" stop-color="#d7402b" stop-opacity="0.40082"/>
      <stop offset="0.60777" stop-color="#d7402b" stop-opacity="0.27959"/>
      <stop offset="0.8574" stop-color="#d7402b" stop-opacity="0.11179"/>
      <stop offset="1" stop-color="#d7402b" stop-opacity="0"/>
    </radialGradient>
  </defs>
  <g>
    <path d="M116.53323,52.90981c.8934-3.88217-5.71162-.29778-7.6687-.904-4.30763-1.60607-12.4975,1.63795-15.39051-.89347-1.93579-6.89221,19.02806-6.76459,16.17758-13.08247-1.51032-1.32952-2.893.74454-4.19066,1.25506-4.60541,1.08491-8.95563,4.85009-13.72062,4.43533-6.91351-7.23265,3.65885-4.14814,8.93435-11.01912-6.86789-3.114-7.62444,10.29769-15.17768-2.39348-1.02119-1.72272-3.75469-2.8395-1.84019-5.53048C106.8224,4.93006,63.714-14.2044,62.38446,14.90679c-5.42442.42548-11.34878-.47864-16.76255,1.31888-2.70163.75519-2.74415-.9998-2.87178-2.90365-2.11765-18.20673-25.1737-16.11221-28.473.24461C10.5332,29.64851,28.721,24.41553,20.87152,37.22146c-3.127,5.53082-14.20991-4.30764-15.35863-.86153,1.4465,5.29686,19.13446,5.13729,14.45458,14.47581C13.99,52.87793,7.087,46.31537.85424,48.22993c-1.31887.42541-.9998,1.90385.20209,2.27609,6.99862.75519,32.217,6.44552,11.99763,11.24244C11.2458,63.08863,5.13,63.078,5.949,66.07739c5.03089.72325,10.32768-3.05257,15.51813-3.13768a1.6193,1.6193,0,0,0,.43612.25532c1.8081,2.87171-11.39136,5.49888-7.9346,7.53036C24.83879,69.3427,21.063,58.079,30.92271,77.66019c1.80817,4.19066,4.49908,11.19986,1.73371,15.48627C30.21011,97.018,36.294,95.75233,38.14465,94.827c3.09516,1.76557,6.754-1.94644,2.82926-3.69079-.64886-.48922-1.92515-1.43585-1.99961-2.57393-2.18089-2.54757-2.73536-7.59583-.80836-9.73212,1.37205.39353,1.053,1.71247,1.38269,2.72285-.75512,4.531,3.76525,7.96655,3.83964,12.47628,1.053,2.58458,2.223,1.06361,3.37172.09568.62749-.01064,1.25506-.02122,1.88255-.02122v-.0213c2.40379,4.47785,6.956-.04252,2.23364-1.22318-3.78648-3.2759-4.47785-8.64721-5.14794-13.25263,1.404-4.531,9.328-1.49973,13.11442-2.11659,3.06322-.04258,6.3817-1.17,9.22154,1.08485-.29784,6.6689-1.79752,11.91252-6.76459,17.34759C74.63549,99.33033,70.682,75.40608,76.39229,76.83c1.83344,1.54817-1.83105,11.41986-2.58453,13.64679a10.37681,10.37681,0,0,1-2.37253,3.382c-.51477.0822-1.24389,2.03484.00912,2.22871,5.99165.70464,7.10749-5.00479,9.71088-9.21585,4.29461-7.74668,6.0231-16.11709,10.04264-23.666,2.99941.88282,6.052,1.43592,9.10456,2.0209,1.4465.234,4.61612,2.41443,4.66929-.17015-3.49934-2.26551-8.67915-2.191-12.01886-5.15858C90.92132,52.70772,112.2043,58.0471,116.53323,52.90981ZM25.36,20.59712c-10.466-5.86048.31907-20.0598,9.1896-12.08267C41.43125,14.21542,32.99678,25.88333,25.36,20.59712Zm43.26786-7.06237c-.62749-11.47647,15.4331-9.73212,15.77346-.24467C84.58214,22.59672,68.3514,23.49019,68.62788,13.53475Z" fill="#ffb5b5"/>
    <g>
      <path d="M73.228,43.92887c-6.2979-9.96958-17.95733,6.92148-6.52586,10.30308C72.14526,56.40242,79.12876,47.56071,73.228,43.92887Z" fill="#d7402b"/>
      <path d="M50.9436,42.8489c-1.44609-1.871-9.20135-1.63914-9.74417.725-8.16543,7.33393,7.71784,17.65293,11.86394,7.87661l.00013.00006C55.60608,47.78039,53.84277,45.17426,50.9436,42.8489Z" fill="#d7402b"/>
    </g>
  </g>
  <g>
    <path d="M18.15191,130.94809c.41157-3.7697.90267-7.53775.94364-11.37331-.31363,2.0757-.65161,13.14295-1.66545,9.94853,1.318-6.47667,1.72831-19.93622.57485-5.66189-.33337-5.67642,2.14806-14.17338-.86325-17.44166,1.94077-.83148,1.99892-.36476-.115-1.37558,6.48649-9.238,31.78724,11.24082,11.09295,14.65057-7.24183.7061-3.02593-.55059,1.64513-.8114-8.58176-1.01245-8.06278,3.3341-8.31706,11.18443-1.43571,3.232-.259-3.44183-.40217-3.608C21.15381,128.5169,19.7216,134.58766,18.15191,130.94809Zm1.50687-19.83787c.1117-.76748,1.18992-3.44743.32882-3.54458Zm3.072,5.61359c3.29626.25784,11.38608.74262,9.66363-4.62709,2.83511,7.53223-18.399,3.80838-2.99017,3.50025,3.81491,1.2798,3.09435-7.03093-.39277-6.65106,2.40486.87759,4.43985,5.42882,1.14344,6.50243C35.64853,107.18241,17.89243,104.33982,22.73075,116.72381Z" fill="#ffb5b5"/>
    <path d="M51.25028,124.16746c-10.93252,3.11273-14.60852-12.23343-6.91107-18.01412-7.5049,5.34194-4.61854,20.494,6.03267,18.46644-15.96153,3.57678-12.77922-23.08809,1.9053-21.69249-8.52187-.87543-14.7547,8.07587-12.456,15.88023-7.29161-13.68545,24.14683-24.46226,14.80308-6.77374-2.67513,3.78331-7.407,2.64318-10.9198.93129-.88171,2.95824-.39965,7.36108,3.17931,8.10817,5.66171,1.02427-1.21136,1.46618-2.67029-.74656C45.937,123.91107,54.97829,120.13952,51.25028,124.16746Zm-3.65842-14.17285c2.22679,1.05344,4.345-.7758,4.93813-2.95179C50.71166,106.81213,42.63526,109.23525,47.59186,109.99461ZM45.77937,112.436c.68063-.52648-1.279-.9337-1.44691-1.13575C43.54908,111.99209,45.51877,112.17429,45.77937,112.436Zm-1.63011,7.81517a7.19978,7.19978,0,0,1-.74693-1.11218A3.62,3.62,0,0,0,44.14926,120.2512Z" fill="#ffb5b5"/>
    <path d="M61.923,118.78357c11.98,10.09293,18.81394-6.04195,1.89365-3.83394,5.21588.11411,15.71518,1.83716,6.93321,7.19314,12.62922-9.72537-18.02508-2.97313-10.25988-15.82221,7.48336-9.68852,16.78893,1.62511,13.97077,4.01259-2.39166-2.42579-12.8565-6.16922-9.73853.45376,5.02473,1.20585,14.14531-.287,13.1501,7.8153-.43822,17.112-31.61737-3.42232-9.284,6.794C64.56988,126.00711,55.2021,116.30276,61.923,118.78357Zm7.39329,4.1858a11.71639,11.71639,0,0,1-5.34641-2.26522c4.36556,6.00294,15.96141-1.12052,8.56037-5.66286C77.20507,116.66324,73.58691,123.96223,69.31629,122.96937Zm1.39619-.79583c-.02262-.00047-.04707-.00258-.06978-.00479C70.66541,122.171,70.68986,122.17307,70.71248,122.17354Zm6.56-5.19819c-.0013.02353-.00547.05766-.009.10391C77.267,117.033,77.27117,116.99888,77.27247,116.97535Zm.195,1.45152a5.83213,5.83213,0,0,0-.204-1.34761,9.60728,9.60728,0,0,1-1.05147,4.67547A11.29383,11.29383,0,0,0,77.46748,118.42687Zm-3.84569,6.2655a6.42341,6.42341,0,0,0,2.54552-2.83608,6.97068,6.97068,0,0,1-5.33751,3.54922A6.11936,6.11936,0,0,0,73.62179,124.69237Z" fill="#ffb5b5"/>
    <path d="M95.31734,109.682a12.46979,12.46979,0,0,0-3.51281.54925c8.72915-.266-7.73575.80383-.40175.6316-4.59559-1.15526-4.19678,7.82049-2.67469,10.25034,5.6131.91579,4.60047,1.89511-.496.51761,7.92175.97054,8.58811,5.0403-.106,2.54845a18.42344,18.42344,0,0,0,5.43226,1.22117c-9.76228,2.28925-10.377-7.77337-8.81313-14.91542-1.28959,1.972-.37361,6.34923-.95659,8.9917a53.82887,53.82887,0,0,1,.5378-9.02537c-1.2369.25473-4.04029-1.82358-1.76831-1.89934-.2749-.954-1.71356-2.72978.6374-2.60808,3.524,2.79223,4.11281-11.63157,5.43555-5.99452.96137-.04088,2.36913-4.00871,2.65135-.3034-4.41343,11.2051,5.06029,5.91244.73047,8.08062C93.76977,107.29993,96.16094,107.29081,95.31734,109.682ZM85.035,121.75136c-.80721-2.2554-.08035-6.54544-.20649-8.91245C84.48155,115.75484,84.02564,119.465,85.035,121.75136Zm2.13818-1.71409a16.67848,16.67848,0,0,1,.12157-2.3008c-.16173,1.13043-.60554,2.6046.13109,3.478C87.153,120.84032,87.22789,120.5269,87.17322,120.03727Zm.3201,1.21773a.10323.10323,0,0,0-.06744-.04054A.10323.10323,0,0,1,87.49332,121.255Z" fill="#ffb5b5"/>
  </g>
  <ellipse cx="56.19151" cy="42.7785" rx="39.30061" ry="29.64006" opacity="0.5" fill="url(#a)"/>
</svg>
